<svg width="667" height="149" viewBox="0 0 667 149" fill="none" xmlns="http://www.w3.org/2000/svg">
<path d="M61.7 18.7C61.6 18.8 61.6 18.8 61.7 18.7Z" fill="#2D2A26"/>
<path d="M58.9003 87.3V87.2C58.9003 87.1 58.9003 87.1 58.8003 87C58.4003 85.9 57.0003 85.9 56.0003 86.1C55.6003 86.2 55.2003 86.3 54.8003 86.5C53.4003 86.9 52.1003 87.6 50.9003 88.3C47.6003 90.6 45.4003 94.1 44.3003 97.9C43.9003 99.2 43.0003 101.9 43.9003 103.1C44.1003 103.6 44.7003 103.8 45.2003 103.8C45.8003 103.8 46.4003 103.5 47.0003 103.2C49.3003 102.3 51.4003 101 53.1003 99.3C54.7003 97.8 56.1003 96.1 57.1003 94.2C57.5003 93.2 58.6003 91 58.8003 89.2C58.9003 88.9 58.9003 88.6 59.0003 88.3C59.0003 88 59.0003 87.7 59.0003 87.4L58.9003 87.3ZM54.7003 92C54.3003 92.9 53.9003 93.7 53.4003 94.4C52.2003 96.1 50.7003 97.5 49.0003 98.7C48.8003 98.8 48.6003 98.9 48.3003 99C48.0003 99 47.7003 98.9 47.6003 98.6C47.5003 98.3 47.6003 98.1 47.6003 97.8C48.8003 94.4 51.2003 91.5 54.3003 90C54.4003 90 54.5003 89.9 54.6003 89.9C54.8003 90 54.9003 90.1 54.9003 90.4C55.1003 90.9 54.9003 91.4 54.7003 92Z" fill="#2D2A26"/>
<path d="M64.2995 58.9999C64.6995 59.8999 65.3995 60.9999 66.4995 61.1999C67.0995 61.2999 67.6995 61.0999 68.0995 60.5999C69.1995 59.6999 69.7995 57.1999 70.3995 55.9999C71.0995 53.6999 71.2995 51.1999 71.2995 48.7999C71.1995 45.8999 70.4995 42.9999 69.2995 40.2999C68.6995 38.7999 67.4995 36.2999 65.7995 37.3999C65.5995 37.4999 65.3995 37.5999 65.2995 37.6999C65.0995 37.8999 64.2995 38.8999 64.0995 39.4999C63.4995 40.5999 62.9995 41.7999 62.6995 42.4999C60.5995 47.2999 61.1995 52.5999 63.4995 57.2999C63.5995 57.7999 64.1995 58.6999 64.2995 58.9999ZM65.2995 44.4999C65.3995 44.2999 65.4995 44.0999 65.4995 43.8999C65.6995 43.3999 66.2995 42.6999 66.7995 43.2999C66.8995 43.3999 66.9995 43.5999 67.0995 43.7999C67.4995 45.1999 67.8995 46.6999 67.9995 48.1999C68.0995 50.2999 67.9995 52.4999 67.3995 54.5999C67.1995 55.0999 66.6995 55.7999 66.1995 55.1999C65.7995 54.7999 65.4995 54.1999 65.2995 53.5999C64.2995 50.6999 64.2995 47.3999 65.2995 44.4999Z" fill="#2D2A26"/>
<path d="M32.9994 65.6C33.0994 65.7 33.0994 65.7 32.9994 65.6C35.7994 70 41.6994 73.3 46.6994 73.2C48.2994 73.2 53.1994 72.9 53.8994 71C53.9994 70.9 53.9994 70.9 54.0994 70.8C54.8994 68.8 50.9994 65.3 49.2994 64.3C44.6994 61.2 38.6994 60.4 33.4994 62C32.9994 62.1 32.6994 62.4 32.4994 62.7C32.0994 63.2 31.9994 63.9 32.2994 64.4C32.4994 64.8 32.7994 65.2 32.9994 65.6ZM37.6994 64.9C38.2994 64.5 38.9994 64.6 39.6994 64.5C39.7994 64.5 39.7994 64.5 39.8994 64.5C43.3994 64.7 46.8994 66 49.3994 68.5C49.5994 68.8 49.6994 69.1 49.4994 69.5C49.2994 69.8 48.9994 69.9 48.6994 70C46.7994 70.2 44.7994 70.1 43.0994 69.5C41.1994 68.9 39.4994 67.8 37.9994 66.5C37.5994 66 37.1994 65.3 37.6994 64.9Z" fill="#2D2A26"/>
<path d="M104.201 61.9999C104.101 61.5999 103.901 61.1999 103.501 60.9999C103.501 60.9999 103.401 60.9999 103.401 60.8999C103.301 60.7999 103.201 60.7999 103.101 60.6999L103.001 60.5999C102.901 60.5999 102.901 60.4999 102.801 60.4999C102.501 60.2999 101.201 59.9999 100.301 59.9999C97.3007 59.5999 93.4006 60.0999 92.2006 60.2999C88.6006 61.0999 85.1007 62.7999 82.8007 65.7999C82.7007 65.9999 82.5007 66.1999 82.3007 66.3999C80.7007 68.0999 79.6007 70.4999 82.6007 71.0999C83.7007 71.4999 85.3007 71.4999 86.3007 71.5999C91.5007 71.5999 96.7007 69.6999 100.801 66.3999C102.001 65.3999 104.101 64.2999 104.201 62.4999V62.3999C104.201 62.1999 104.201 62.0999 104.201 61.9999ZM98.1007 64.2999C98.0007 64.3999 97.9007 64.4999 97.8007 64.4999C96.8007 65.1999 95.8006 65.7999 94.7006 66.2999C92.3006 67.2999 89.8006 68.0999 87.2006 68.1999C86.1006 68.0999 85.3006 67.7999 86.2006 66.5999C88.0006 64.7999 90.5007 63.7999 92.9007 63.1999C94.3007 62.9999 95.8006 62.8999 97.2006 62.8999C97.7006 62.8999 98.3007 62.8999 98.5007 63.3999C98.7007 63.7999 98.4007 64.0999 98.1007 64.2999Z" fill="#2D2A26"/>
<path d="M66.9008 8.8999C30.9008 8.8999 1.80078 38.0999 1.80078 73.9999C1.80078 109.9 30.9008 139.1 66.9008 139.1C102.901 139.1 132.001 110 132.001 73.9999C132.001 37.9999 102.801 8.8999 66.9008 8.8999ZM49.7008 38.5999C49.7008 38.3999 49.8008 38.2999 49.8008 38.0999V38.1999C49.9008 37.7999 50.0008 37.4999 50.1008 37.0999C50.2008 36.7999 50.3008 36.4999 50.4008 36.0999C50.6008 35.4999 50.8008 34.7999 51.0008 34.1999C51.2008 33.5999 51.5008 32.8999 51.8008 32.2999C52.1008 31.6999 52.4008 31.0999 52.7008 30.4999C52.8008 30.2999 52.9008 30.1999 53.0008 29.9999V30.0999C53.3008 29.4999 53.7008 28.8999 54.0008 28.2999C54.3008 27.6999 54.7008 27.0999 55.1008 26.4999C55.5008 25.8999 55.8008 25.3999 56.2008 24.7999C56.3008 24.6999 56.4008 24.4999 56.5008 24.3999C56.6008 24.2999 56.6008 24.1999 56.7008 24.1999C56.8008 23.9999 57.0008 23.7999 57.1008 23.6999C57.2008 23.4999 57.4008 23.3999 57.5008 23.1999C57.6008 22.9999 57.8008 22.8999 57.9008 22.6999C58.2008 22.3999 58.4008 22.0999 58.7008 21.7999C59.0008 21.4999 59.2008 21.1999 59.5008 20.9999C59.7008 20.7999 59.9008 20.5999 60.1008 20.3999C60.3008 20.1999 60.4008 20.0999 60.6008 19.8999C60.8008 19.6999 61.0008 19.5999 61.1008 19.3999C61.2008 19.2999 61.3008 19.1999 61.4008 19.0999C61.5008 18.9999 61.6008 18.8999 61.7008 18.7999C61.9008 18.5999 62.1008 18.4999 62.3008 18.2999C62.5008 18.0999 62.7008 17.9999 62.9008 17.7999C63.0008 17.6999 63.1008 17.5999 63.2008 17.4999C63.3008 17.3999 63.4008 17.2999 63.5008 17.1999C63.7008 16.9999 64.0008 16.8999 64.2008 16.6999C64.3008 16.5999 64.4008 16.5999 64.5008 16.4999C64.6008 16.3999 64.7008 16.3999 64.8008 16.2999C64.9008 16.1999 65.1008 16.0999 65.2008 15.9999L65.3008 15.8999C65.4008 15.7999 65.5008 15.7999 65.5008 15.6999C65.8008 15.4999 66.1008 15.1999 66.5008 15.0999C66.6008 15.0999 66.7008 14.9999 66.9008 15.0999C67.1008 15.0999 67.3008 15.0999 67.5008 15.1999C67.8008 15.2999 68.0008 15.4999 68.2008 15.6999C68.4008 15.8999 68.6008 15.9999 68.7008 16.1999C68.9008 16.2999 69.0008 16.4999 69.2008 16.5999C69.7008 16.9999 70.1008 17.3999 70.6008 17.7999C71.0008 18.0999 71.3008 18.3999 71.7008 18.6999C71.8008 18.7999 71.8008 18.7999 71.9008 18.8999C71.9008 18.8999 71.9008 18.8999 72.0008 18.9999C72.4008 19.3999 72.8008 19.6999 73.2008 20.0999C73.4008 20.1999 73.5008 20.3999 73.7008 20.4999C73.9008 20.6999 74.0008 20.7999 74.1008 20.9999C74.5008 21.3999 74.8008 21.6999 75.2008 21.9999C75.6008 22.2999 75.9008 22.6999 76.3008 23.0999C76.5008 23.2999 76.7008 23.4999 76.8008 23.5999C77.0008 23.7999 77.2008 23.9999 77.4008 24.2999C77.6008 24.4999 77.8008 24.6999 78.0008 24.9999C78.2008 25.1999 78.4008 25.4999 78.6008 25.6999C78.9008 26.1999 79.2008 26.6999 79.5008 27.0999C79.7008 27.3999 79.8008 27.5999 79.9008 27.8999C80.1008 28.1999 80.2008 28.4999 80.4008 28.7999C80.7008 29.2999 80.9008 29.7999 81.1008 30.2999C81.3008 30.7999 81.6008 31.3999 81.8008 31.8999C81.9008 32.1999 82.0008 32.4999 82.1008 32.7999C82.2008 32.9999 82.2008 33.1999 82.3008 33.4999C82.4008 33.6999 82.4008 33.9999 82.5008 34.1999C82.6008 34.4999 82.6008 34.6999 82.6008 34.9999C82.6008 35.3999 82.7008 35.7999 82.8008 36.1999C82.9008 36.6999 82.9008 37.1999 83.0008 37.6999C83.0008 37.8999 83.1008 38.0999 83.1008 38.2999C83.1008 38.4999 83.1008 38.6999 83.1008 38.8999C83.2008 44.0999 82.3008 49.4999 79.5008 53.9999C78.7008 55.0999 77.8008 56.2999 76.9008 57.2999C75.9008 58.6999 74.8008 60.0999 73.6008 61.3999C73.5008 61.4999 73.5008 61.4999 73.4008 61.4999C72.3008 62.4999 71.2008 63.7999 69.6008 63.9999C68.8008 64.0999 67.9008 64.0999 67.1008 64.0999C66.6008 64.0999 66.1008 63.9999 65.6008 63.9999C64.6008 63.8999 63.5008 63.9999 62.5008 63.4999C61.8008 63.1999 61.3008 62.6999 60.7008 62.1999C59.8008 61.3999 59.0008 60.5999 58.2008 59.7999C56.3008 57.7999 54.5008 55.7999 52.8008 53.5999C49.8008 49.2999 49.2008 43.8999 49.7008 38.5999ZM28.3008 80.5999C28.1008 80.4999 27.9008 80.3999 27.8008 80.3999C27.6008 80.2999 27.4008 80.1999 27.2008 80.0999C27.0008 79.9999 26.8008 79.8999 26.6008 79.7999C26.4008 79.6999 26.2008 79.5999 26.0008 79.4999C25.5008 79.2999 25.1008 78.9999 24.6008 78.7999C24.2008 78.5999 23.9008 78.3999 23.5008 78.1999C23.3008 78.0999 23.0008 77.9999 22.8008 77.7999C22.6008 77.6999 22.4008 77.4999 22.2008 77.3999C22.0008 77.2999 21.8008 77.1999 21.6008 76.9999C21.3008 76.7999 21.1008 76.5999 20.9008 76.3999C20.5008 75.9999 20.0008 75.5999 19.6008 75.1999C19.2008 74.7999 18.8008 74.3999 18.4008 73.9999C18.2008 73.7999 18.0008 73.4999 17.8008 73.2999C17.6008 73.0999 17.4008 72.8999 17.2008 72.5999C16.9008 72.0999 16.5008 71.6999 16.2008 71.1999C16.0008 70.8999 15.8008 70.6999 15.7008 70.3999C15.6008 70.0999 15.4008 69.8999 15.3008 69.5999C15.2008 69.3999 15.0008 69.0999 14.9008 68.8999C14.8008 68.6999 14.7008 68.3999 14.6008 68.1999C14.4008 67.6999 14.2008 67.2999 14.0008 66.7999C13.8008 66.2999 13.6008 65.8999 13.4008 65.3999C13.3008 65.1999 13.2008 64.9999 13.1008 64.7999C13.0008 64.5999 12.9008 64.3999 12.9008 64.1999C12.7008 63.6999 12.5008 63.1999 12.3008 62.6999V62.5999C12.3008 62.4999 12.2008 62.3999 12.2008 62.2999C12.0008 61.8999 11.9008 61.3999 11.7008 60.9999C11.5008 60.3999 11.3008 59.7999 11.1008 59.2999C11.0008 59.0999 10.9008 58.8999 10.8008 58.6999C10.7008 58.4999 10.6008 58.2999 10.5008 57.9999C10.4008 57.6999 10.3008 57.4999 10.3008 57.1999C10.3008 56.9999 10.3008 56.7999 10.4008 56.5999C10.4008 56.4999 10.5008 56.3999 10.6008 56.2999C10.8008 55.9999 11.2008 55.7999 11.5008 55.4999C11.6008 55.3999 11.7008 55.3999 11.8008 55.2999L11.9008 55.1999C12.0008 55.0999 12.2008 54.9999 12.3008 54.8999C12.4008 54.7999 12.5008 54.6999 12.6008 54.6999C12.7008 54.5999 12.8008 54.5999 12.9008 54.4999C13.1008 54.3999 13.4008 54.1999 13.6008 53.9999C13.7008 53.8999 13.8008 53.7999 14.0008 53.7999C14.1008 53.6999 14.3008 53.6999 14.4008 53.5999C14.6008 53.4999 14.8008 53.2999 15.1008 53.1999C15.3008 53.0999 15.6008 52.9999 15.8008 52.7999C15.9008 52.6999 16.1008 52.5999 16.2008 52.5999C16.3008 52.4999 16.4008 52.4999 16.6008 52.3999C16.8008 52.2999 17.0008 52.1999 17.2008 52.0999C17.4008 51.9999 17.6008 51.8999 17.8008 51.7999C18.1008 51.6999 18.3008 51.5999 18.6008 51.4999C18.9008 51.2999 19.3008 51.1999 19.6008 51.0999C20.0008 50.9999 20.4008 50.7999 20.7008 50.6999C20.9008 50.5999 21.1008 50.5999 21.3008 50.4999C21.5008 50.3999 21.7008 50.3999 21.9008 50.2999C22.1008 50.1999 22.3008 50.1999 22.5008 50.0999C22.6008 50.0999 22.7008 50.0999 22.8008 49.9999C23.0008 49.8999 23.1008 49.8999 23.3008 49.7999C24.0008 49.5999 24.6008 49.4999 25.3008 49.2999C26.0008 49.0999 26.7008 48.9999 27.4008 48.8999C28.1008 48.7999 28.7008 48.6999 29.4008 48.5999C29.6008 48.5999 29.8008 48.4999 29.9008 48.4999C30.6008 48.3999 31.2008 48.2999 31.9008 48.2999C32.6008 48.2999 33.3008 48.2999 34.0008 48.2999C34.7008 48.2999 35.3008 48.2999 36.0008 48.3999C36.3008 48.3999 36.7008 48.4999 37.0008 48.4999C37.2008 48.4999 37.4008 48.5999 37.6008 48.5999C41.4008 49.4999 45.1008 51.3999 48.2008 53.8999C49.2008 54.6999 50.1008 55.5999 51.0008 56.4999C51.5008 57.1999 52.1008 57.7999 52.7008 58.4999C53.2008 58.9999 53.6008 59.4999 54.1008 60.0999C54.2008 60.1999 54.3008 60.2999 54.4008 60.4999C54.5008 60.5999 54.5008 60.5999 54.6008 60.6999L54.7008 60.7999C55.7008 61.8999 56.7008 62.8999 57.7008 63.8999C58.3008 64.5999 59.1008 65.1999 59.3008 66.1999C59.5008 67.0999 59.2008 67.9999 58.8008 68.6999C58.7008 68.8999 58.6008 69.1999 58.5008 69.4999C58.5008 69.4999 58.5008 69.5999 58.4008 69.5999L58.3008 69.6999C57.7008 71.2999 57.3008 72.8999 57.1008 74.4999C57.0008 74.8999 56.9008 75.3999 56.8008 75.7999C56.3008 77.1999 54.7008 77.4999 53.4008 77.8999C50.9008 78.4999 48.4008 79.2999 45.9008 80.0999C45.9008 80.0999 45.9008 80.0999 45.8008 80.0999C44.4008 80.5999 43.0008 80.9999 41.6008 81.3999C39.8008 81.7999 38.0008 82.2999 36.2008 82.1999C34.2008 81.9999 32.1008 81.7999 30.1008 81.0999H30.0008C29.2008 80.8999 28.8008 80.7999 28.3008 80.5999ZM65.5008 99.9999C65.4008 101.4 65.2008 102.8 64.7008 104.2C63.9008 106.1 62.9008 107.9 61.8008 109.6C61.7008 109.7 61.6008 109.9 61.5008 110C61.2008 110.4 60.9008 110.8 60.6008 111.1C60.6008 111.1 60.6008 111.1 60.7008 111C60.7008 111 60.7008 111 60.6008 111.1C60.5008 111.2 60.4008 111.4 60.2008 111.5C60.1008 111.7 59.9008 111.8 59.8008 112C59.8008 112 59.8008 112 59.9008 111.9C59.7008 112.1 59.6008 112.3 59.4008 112.5C59.3008 112.7 59.1008 112.8 59.0008 112.9C58.6008 113.3 58.3008 113.6 57.9008 114C57.6008 114.3 57.3008 114.6 57.0008 114.8C56.8008 115 56.6008 115.2 56.4008 115.4C56.2008 115.6 56.0008 115.7 55.8008 115.9C55.6008 116 55.4008 116.2 55.3008 116.3C55.0008 116.5 54.8008 116.7 54.5008 116.8C54.0008 117.1 53.5008 117.4 53.0008 117.7C52.5008 118 52.0008 118.2 51.5008 118.5C51.2008 118.6 50.9008 118.8 50.6008 118.9C50.3008 119 50.1008 119.1 49.8008 119.2C49.3008 119.4 48.7008 119.6 48.2008 119.7C47.9008 119.8 47.6008 119.9 47.3008 119.9C47.0008 120 46.7008 120 46.4008 120.1C46.1008 120.2 45.8008 120.2 45.6008 120.3C45.4008 120.3 45.1008 120.4 44.9008 120.4C44.4008 120.5 43.9008 120.5 43.4008 120.6C42.9008 120.6 42.4008 120.7 41.9008 120.7C41.7008 120.7 41.5008 120.8 41.3008 120.8C41.1008 120.8 40.9008 120.8 40.7008 120.9C40.2008 120.9 39.6008 121 39.1008 121H39.0008C38.9008 121 38.8008 121 38.7008 121C38.2008 121 37.8008 121.1 37.3008 121.1C36.7008 121.1 36.1008 121.1 35.4008 121.2C35.2008 121.2 35.0008 121.2 34.8008 121.3C34.6008 121.3 34.3008 121.3 34.1008 121.3C33.8008 121.3 33.5008 121.3 33.2008 121.3C33.0008 121.3 32.8008 121.2 32.6008 121C32.5008 120.9 32.4008 120.8 32.3008 120.7C32.1008 120.4 32.0008 120 31.9008 119.6C31.9008 119.5 31.8008 119.4 31.8008 119.3V119.2C31.8008 119 31.7008 118.9 31.7008 118.8C31.7008 118.7 31.6008 118.6 31.6008 118.4C31.6008 118.3 31.5008 118.2 31.5008 118.1C31.4008 117.8 31.3008 117.6 31.3008 117.3C31.3008 117.2 31.2008 117 31.2008 116.9C31.2008 116.8 31.1008 116.6 31.1008 116.5C31.0008 116.2 31.0008 116 30.9008 115.7C30.8008 115.4 30.8008 115.2 30.7008 114.9C30.7008 114.9 30.7008 114.9 30.7008 114.8C30.7008 114.7 30.6008 114.5 30.6008 114.4C30.6008 114.3 30.5008 114.1 30.5008 114C30.5008 113.8 30.4008 113.5 30.4008 113.3C30.4008 113.1 30.3008 112.8 30.3008 112.6C30.3008 112.3 30.3008 112 30.2008 111.7C30.2008 111.3 30.1008 110.9 30.1008 110.5C30.1008 110.1 30.1008 109.7 30.0008 109.3C30.0008 109.1 30.0008 108.9 30.0008 108.7C30.0008 108.5 30.0008 108.3 30.0008 108.1C30.0008 107.9 30.0008 107.7 30.0008 107.5C30.0008 107.4 30.0008 107.3 30.0008 107.2C30.0008 107 30.0008 106.8 30.0008 106.7C30.0008 106 30.1008 105.3 30.2008 104.7C30.3008 104 30.3008 103.3 30.4008 102.6C30.5008 101.9 30.6008 101.2 30.7008 100.5V100.6C30.7008 100.4 30.8008 100.2 30.8008 100.1C30.9008 99.3999 31.0008 98.7999 31.2008 98.0999C31.4008 97.3999 31.6008 96.7999 31.8008 96.0999C32.0008 95.4999 32.2008 94.7999 32.5008 94.1999C32.6008 93.8999 32.8008 93.5999 32.9008 93.2999C33.1008 92.9999 33.2008 92.5999 33.4008 92.2999V92.3999C33.5008 92.1999 33.5008 92.0999 33.6008 91.8999C34.1008 91.1999 34.5008 90.4999 35.0008 89.7999C36.2008 88.0999 37.8008 86.8999 39.7008 85.9999C41.4008 85.0999 43.2008 84.3999 44.9008 83.7999C47.7008 82.6999 50.5008 81.7999 53.3008 81.0999C57.8008 80.3999 58.5008 82.4999 61.5008 84.1999C61.9008 84.3999 62.4008 84.6999 62.8008 84.8999C63.4008 85.1999 64.0008 85.4999 64.4008 85.9999C65.6008 86.9999 65.8008 88.4999 65.9008 89.9999C65.5008 93.1999 65.4008 96.5999 65.5008 99.9999ZM60.0008 76.1999C60.0008 67.8999 65.6008 67.4999 67.1008 67.4999C74.9008 67.4999 74.3008 73.4999 74.0008 76.6999C73.8008 78.2999 72.2008 82.5999 67.5008 82.5999C61.9008 82.5999 60.0008 78.4999 60.0008 76.1999ZM104.201 109.7C104.201 109.9 104.201 110.1 104.201 110.3C104.201 110.7 104.201 111.1 104.101 111.5C104.101 111.9 104.001 112.3 104.001 112.6C104.001 112.9 104.001 113.2 103.901 113.4C103.901 113.6 103.801 113.9 103.801 114.1C103.801 114.3 103.701 114.6 103.701 114.8C103.701 114.9 103.601 115.1 103.601 115.2C103.601 115.3 103.501 115.5 103.501 115.6C103.401 115.9 103.401 116.1 103.301 116.4C103.201 116.7 103.201 116.9 103.101 117.2C103.101 117.3 103.001 117.5 103.001 117.6C103.001 117.7 102.901 117.9 102.901 118C102.801 118.3 102.701 118.5 102.701 118.8C102.701 118.9 102.601 119 102.601 119.1C102.601 119.2 102.501 119.3 102.501 119.5C102.401 119.6 102.401 119.8 102.401 119.9V120C102.401 120.1 102.401 120.2 102.301 120.3C102.201 120.7 102.101 121.1 101.901 121.4C101.801 121.5 101.701 121.6 101.601 121.7C101.401 121.9 101.201 122 101.001 122C100.701 122.1 100.401 122 100.101 122C99.9008 122 99.6008 122 99.4008 122C99.2008 122 99.0008 122 98.8008 121.9C98.2008 121.9 97.6008 121.8 96.9008 121.8C96.4008 121.8 96.0008 121.7 95.5008 121.7C95.4008 121.7 95.3008 121.7 95.2008 121.7H95.1008C94.6008 121.7 94.0008 121.6 93.5008 121.6C93.3008 121.6 93.1008 121.6 92.9008 121.5C92.7008 121.5 92.5008 121.4 92.3008 121.4C91.8008 121.3 91.3008 121.3 90.8008 121.3C90.3008 121.3 89.8008 121.2 89.3008 121.1C89.1008 121.1 88.8008 121 88.6008 121C88.3008 121 88.0008 120.9 87.8008 120.8C87.5008 120.7 87.2008 120.7 86.9008 120.6C86.6008 120.5 86.3008 120.5 86.0008 120.4C85.5008 120.2 84.9008 120 84.4008 119.9C84.1008 119.8 83.9008 119.7 83.6008 119.6C83.3008 119.5 83.0008 119.4 82.7008 119.2C82.2008 119 81.7008 118.7 81.2008 118.4C80.7008 118.1 80.2008 117.8 79.7008 117.5C79.4008 117.3 79.2008 117.2 78.9008 117C78.7008 116.9 78.5008 116.7 78.4008 116.6C78.2008 116.4 78.0008 116.3 77.8008 116.1C77.6008 115.9 77.4008 115.7 77.2008 115.5C76.9008 115.2 76.6008 114.9 76.3008 114.7C75.9008 114.3 75.6008 114 75.2008 113.6C75.1008 113.5 74.9008 113.3 74.8008 113.2C74.6008 113 74.5008 112.8 74.3008 112.6C74.2008 112.4 74.0008 112.3 73.9008 112.1C73.8008 112 73.7008 111.8 73.5008 111.7C73.5008 111.7 73.5008 111.7 73.4008 111.6C73.4008 111.6 73.4008 111.6 73.5008 111.7C73.2008 111.3 72.9008 111 72.6008 110.6C72.5008 110.4 72.3008 110.2 72.2008 110C72.1008 109.8 72.0008 109.6 71.8008 109.5C71.6008 109.3 71.5008 109 71.3008 108.8C70.8008 107.8 70.3008 106.8 69.9008 105.8C69.5008 104.7 69.3008 103.6 69.1008 102.5C69.1008 102 69.0008 101.6 69.0008 101.1C69.0008 100.8 69.0008 100.6 69.0008 100.4C68.9008 98.4999 68.9008 96.5999 68.9008 94.6999C69.0008 92.7999 69.0008 90.9999 69.0008 89.0999C69.2008 87.9999 69.5008 86.8999 70.2008 85.9999C70.8008 85.1999 71.6008 84.5999 72.4008 83.9999C73.9008 83.0999 75.3008 81.7999 76.2008 80.2999C77.4008 78.6999 78.7008 78.7999 80.2008 79.1999C81.7008 79.7999 83.2008 80.3999 84.7008 80.9999C84.7008 80.9999 84.7008 80.9999 84.8008 80.9999C84.9008 80.9999 85.1008 81.0999 85.2008 81.0999C85.9008 81.2999 86.6008 81.5999 87.2008 81.7999C87.3008 81.7999 87.3008 81.7999 87.4008 81.8999H87.5008C87.6008 81.8999 87.6008 81.8999 87.7008 81.9999C88.0008 82.0999 88.2008 82.1999 88.5008 82.2999C89.3008 82.5999 90.1008 82.8999 91.0008 83.1999C91.9008 83.4999 92.9008 83.8999 93.7008 84.4999C95.0008 85.3999 96.3008 86.3999 97.5008 87.4999C97.6008 87.5999 97.6008 87.5999 97.7008 87.6999C97.9008 87.8999 98.1008 88.1999 98.3008 88.3999C98.5008 88.6999 98.7008 88.8999 98.9008 89.1999C99.1008 89.4999 99.3008 89.7999 99.6008 90.0999C99.8008 90.3999 100.001 90.6999 100.201 91.0999C100.401 91.3999 100.601 91.7999 100.801 92.0999C101.001 92.3999 101.101 92.7999 101.301 93.0999V92.9999C101.501 93.2999 101.601 93.6999 101.801 93.9999C101.901 94.2999 102.101 94.5999 102.201 94.8999C102.501 95.4999 102.701 96.0999 102.901 96.7999C103.101 97.4999 103.301 98.0999 103.501 98.7999C103.701 99.3999 103.801 100.1 103.901 100.8C103.901 101 104.001 101.2 104.001 101.3V101.2C104.101 101.9 104.201 102.6 104.301 103.3C104.401 104 104.501 104.7 104.501 105.4C104.601 106.1 104.601 106.8 104.701 107.4C104.701 107.6 104.701 107.8 104.701 107.9C104.701 108 104.701 108.1 104.701 108.2C104.701 108.4 104.701 108.6 104.701 108.8C104.201 109.3 104.201 109.5 104.201 109.7ZM123.501 55.9999C123.401 56.0999 123.401 56.0999 123.501 55.9999C123.501 56.0999 123.501 56.0999 123.401 56.1999V56.2999C123.401 56.3999 123.401 56.3999 123.401 56.4999V56.5999V56.6999V56.7999V56.8999C123.401 56.8999 123.401 56.8999 123.401 56.9999V57.0999V57.1999C123.401 57.1999 123.401 57.2999 123.301 57.2999C123.301 57.2999 123.301 57.3999 123.201 57.3999C123.101 57.5999 123.001 57.7999 123.001 57.9999C122.801 58.5999 122.601 59.0999 122.401 59.6999C122.201 60.0999 122.101 60.5999 121.901 60.9999C121.901 61.0999 121.801 61.1999 121.801 61.2999V61.3999C121.601 61.8999 121.401 62.3999 121.201 62.8999C121.101 63.0999 121.001 63.2999 121.001 63.4999C120.901 63.6999 120.801 63.8999 120.701 64.0999C120.501 64.5999 120.301 64.9999 120.101 65.4999C119.901 65.9999 119.701 66.3999 119.501 66.8999C119.401 67.0999 119.301 67.3999 119.201 67.5999C119.101 67.8999 118.901 68.0999 118.801 68.2999C118.701 68.5999 118.501 68.7999 118.401 69.0999C118.201 69.3999 118.101 69.5999 117.901 69.8999C117.601 70.3999 117.201 70.7999 116.901 71.2999C116.701 71.4999 116.501 71.7999 116.301 71.9999C116.101 72.1999 115.901 72.4999 115.701 72.6999C115.301 73.0999 114.901 73.4999 114.501 73.8999C114.101 74.2999 113.701 74.6999 113.201 75.0999C113.001 75.2999 112.701 75.4999 112.501 75.6999C112.301 75.7999 112.101 75.9999 111.901 76.0999C111.701 76.1999 111.501 76.3999 111.301 76.4999C111.101 76.5999 110.801 76.7999 110.601 76.8999C110.201 77.0999 109.901 77.2999 109.501 77.4999C109.101 77.7999 108.601 77.9999 108.101 78.1999C107.901 78.2999 107.701 78.3999 107.501 78.4999C107.301 78.5999 107.101 78.6999 106.901 78.7999C106.701 78.8999 106.501 78.9999 106.301 79.0999C106.101 79.1999 105.901 79.1999 105.801 79.2999H105.701C105.301 79.4999 104.901 79.5999 104.401 79.7999C104.301 79.7999 104.101 79.8999 104.001 79.8999C100.001 81.0999 95.8008 81.3999 91.8008 80.2999C91.4008 80.1999 91.0008 80.0999 90.6008 79.9999C90.0008 79.7999 89.3008 79.5999 88.7008 79.2999C85.9008 78.2999 83.1008 77.2999 80.4008 76.1999C80.0008 75.9999 79.6008 75.7999 79.2008 75.4999C78.3008 74.7999 78.2008 73.5999 77.9008 72.4999C77.9008 72.3999 77.9008 72.1999 77.8008 72.0999C77.8008 71.9999 77.8008 71.7999 77.7008 71.6999C77.3008 70.4999 76.8008 69.3999 76.0008 68.4999C75.8008 68.0999 75.5008 67.7999 75.2008 67.4999C74.7008 66.7999 75.0008 65.8999 75.4008 65.1999C75.6008 64.8999 75.8008 64.5999 75.9008 64.2999C76.0008 64.1999 76.0008 64.1999 76.1008 64.0999C77.4008 62.4999 78.6008 60.9999 79.9008 59.3999C80.0008 59.2999 80.0008 59.1999 80.1008 59.0999C80.1008 59.0999 80.1008 59.0999 80.1008 58.9999C80.4008 58.5999 80.7008 58.2999 81.0008 57.8999C81.5008 57.2999 82.0008 56.5999 82.5008 55.8999C82.5008 55.8999 82.5008 55.8999 82.6008 55.8999C83.3008 54.8999 84.0008 53.7999 84.9008 52.8999C86.9008 50.9999 89.3008 49.4999 91.8008 48.2999C91.9008 48.2999 91.9008 48.2999 92.0008 48.1999C92.3008 48.0999 92.7008 47.8999 93.0008 47.7999C93.4008 47.6999 93.7008 47.5999 94.1008 47.4999C94.5008 47.3999 94.8008 47.2999 95.2008 47.2999C95.5008 47.1999 95.9008 47.1999 96.3008 47.1999C96.7008 47.1999 97.0008 47.0999 97.4008 47.0999C97.7008 47.0999 98.1008 46.9999 98.4008 46.9999C99.1008 46.8999 99.7008 46.8999 100.401 46.8999C101.101 46.8999 101.801 46.8999 102.501 46.8999C103.201 46.8999 103.801 46.9999 104.501 47.0999C104.701 47.0999 104.901 47.1999 105.001 47.1999C105.701 47.2999 106.301 47.3999 107.001 47.4999C107.701 47.5999 108.401 47.6999 109.101 47.8999C109.801 47.9999 110.401 48.1999 111.101 48.3999C111.301 48.3999 111.401 48.4999 111.601 48.5999C111.701 48.5999 111.801 48.5999 111.901 48.6999C112.101 48.7999 112.301 48.7999 112.501 48.8999C112.701 48.9999 112.901 48.9999 113.101 49.0999C113.301 49.1999 113.501 49.1999 113.701 49.2999C114.101 49.3999 114.501 49.5999 114.801 49.6999C115.201 49.7999 115.501 49.9999 115.801 50.0999C116.101 50.1999 116.301 50.2999 116.601 50.3999C116.801 50.4999 117.001 50.5999 117.201 50.6999C117.401 50.7999 117.601 50.8999 117.801 50.9999C117.901 51.0999 118.101 51.0999 118.201 51.1999C118.301 51.2999 118.401 51.3999 118.601 51.3999C118.801 51.4999 119.101 51.5999 119.301 51.7999C119.501 51.8999 119.701 52.0999 120.001 52.1999C120.101 52.2999 120.301 52.2999 120.401 52.3999C120.501 52.4999 120.601 52.5999 120.801 52.5999C120.901 52.5999 120.901 52.6999 121.001 52.6999C121.101 52.7999 121.201 52.8999 121.401 52.8999C121.501 52.8999 121.501 52.9999 121.601 52.9999C121.701 52.9999 121.701 53.0999 121.801 53.0999C122.001 53.1999 122.101 53.2999 122.301 53.3999C122.501 53.4999 122.601 53.5999 122.801 53.6999C122.901 53.7999 123.101 53.8999 123.201 53.9999C123.301 54.0999 123.501 54.1999 123.601 54.2999C123.701 54.3999 123.801 54.4999 123.901 54.5999C124.001 54.6999 124.101 54.7999 124.101 54.8999C124.101 54.9999 124.201 54.9999 124.201 55.0999V55.1999C124.201 55.2999 124.201 55.3999 124.201 55.4999C124.201 55.5999 124.201 55.6999 124.201 55.7999C123.501 55.8999 123.501 55.9999 123.501 55.9999Z" fill="#231F20"/>
<path d="M90.2006 100.4C89.6006 96.9 87.9006 93.6 85.7006 90.8C84.8006 89.4 79.9006 85.2 77.2006 85.2C76.6006 85.2 76.0006 85.3 75.5006 85.9C72.6006 88.6 77.5006 97.7 81.3006 101.6C82.9006 103.4 84.6006 105.3 86.8006 106.4C87.3006 106.8 87.9006 107 88.5006 107.1C89.6006 107.1 90.2006 105.9 90.4006 104.9C90.6006 103.9 90.5006 102.9 90.3006 101.8C90.3006 101.4 90.3006 100.9 90.2006 100.4ZM85.6006 101.4C85.3006 101.1 84.9006 100.8 84.6006 100.5C84.2006 100 83.8006 99.6 83.3006 99.1C81.1006 96.7 79.6006 93.8 78.8006 90.7C78.7006 90.2 78.8006 89 80.2006 89.9C80.5006 90.1 80.7006 90.3 81.0006 90.5C83.8006 92.9 85.9006 96.1 86.8006 99.7C86.9006 100.1 86.9006 100.6 86.9006 101C86.8006 101.6 86.0006 101.8 85.6006 101.4Z" fill="#2D2A26"/>
<path d="M158.8 44.4001C157.6 44.4001 157.2 44.8001 157.2 45.9001V92.7C157.2 94.7 156.3 95.6 154.4 95.6H146C144.1 95.6 143 94.7 143 92.7V34.7001C143 32.7001 144.1 31.8 146 31.8H154.4C156.3 31.8 157.2 32.7001 157.2 34.7001V35.7001C157.2 36.6001 158.4 37.6001 159.4 36.7001L164.9 32.4001C165.5 31.9001 166.2 31.8 166.7 31.8H175.3C177.2 31.8 178.3 32.8001 178.3 34.7001V41.6C178.3 43.5 177.2 44.4001 175.3 44.4001H158.8Z" fill="black"/>
<path d="M211.399 44.4001H193.999C192.099 44.4001 190.999 43.5 190.999 41.6V34.7001C190.999 32.8001 192.099 31.8 193.999 31.8H213.599C226.899 31.8 234.599 39.3 234.599 52.3V92.7C234.599 94.7 233.499 95.6 231.599 95.6H223.199C221.299 95.6 220.399 94.7 220.399 92.7V91.7C220.399 90.8 219.199 89.8 218.199 90.7L212.699 95C212.099 95.5 211.399 95.6 210.899 95.6H201.699C191.899 95.6 185.699 89.5001 185.699 79.9001V72.6C185.699 63 191.899 56.9001 201.699 56.9001H218.799C219.999 56.9001 220.399 56.5001 220.399 55.4001V53C220.399 47.3 217.299 44.4001 211.399 44.4001ZM199.899 78.7C199.899 81.4 201.599 83 204.299 83H218.799C219.999 83 220.399 82.6 220.399 81.5V70.1C220.399 69 219.999 68.6 218.799 68.6H204.299C201.599 68.6 199.899 70.2001 199.899 72.9001V78.7Z" fill="black"/>
<path d="M263.101 44.4001C261.901 44.4001 261.501 44.8001 261.501 45.9001V92.7C261.501 94.7 260.601 95.6 258.701 95.6H250.301C248.401 95.6 247.301 94.7 247.301 92.7V34.7001C247.301 32.7001 248.401 31.8 250.301 31.8H258.701C260.601 31.8 261.501 32.7001 261.501 34.7001V35.7001C261.501 36.6001 262.701 37.6001 263.701 36.7001L269.201 32.4001C269.801 31.9001 270.501 31.8 271.001 31.8H279.601C281.501 31.8 282.601 32.8001 282.601 34.7001V41.6C282.601 43.5 281.501 44.4001 279.601 44.4001H263.101Z" fill="black"/>
<path d="M340 52.3V61.4001C340 67.2001 336.4 70.7 330.5 70.7H305.8C304.6 70.7 304.2 71.1 304.2 72.2V74.4001C304.2 80.2001 307.3 83.1 313.2 83.1H330.6C332.5 83.1 333.6 84.0001 333.6 85.9001V92.8001C333.6 94.7001 332.5 95.7 330.6 95.7H311C297.7 95.7 290 88.2 290 75.2V52.3C290 39.3 297.7 31.8 311 31.8H319C332.3 31.8 340 39.3 340 52.3ZM316.8 43.4001H313.2C307.3 43.4001 304.2 46.3 304.2 52.1V57.7001C304.2 58.8001 304.6 59.2001 305.8 59.2001H322.8C324.7 59.2001 325.8 58.2 325.8 56.3V52C325.8 46.2 322.7 43.4001 316.8 43.4001Z" fill="black"/>
<path d="M365.5 69.0002C355.7 69.0002 349.5 62.9002 349.5 53.3002V47.4002C349.5 37.8002 355.7 31.7002 365.5 31.7002H390.1C392 31.7002 393.1 32.6002 393.1 34.5002V41.4002C393.1 43.3002 392 44.3002 390.1 44.3002H368.2C365.5 44.3002 363.8 46.0002 363.8 48.6002V52.6002C363.8 55.3002 365.5 56.9002 368.2 56.9002H379.7C389.5 56.9002 395.7 63.0002 395.7 72.6002V80.0002C395.7 89.6002 389.5 95.7002 379.7 95.7002H354.9C353 95.7002 351.9 94.8002 351.9 92.9002V86.0002C351.9 84.1002 353 83.1002 354.9 83.1002H377C379.7 83.1002 381.4 81.4002 381.4 78.8002V73.4002C381.4 70.7002 379.7 69.1002 377 69.1002H365.5V69.0002Z" fill="black"/>
<path d="M456.199 52.3V61.4001C456.199 67.2001 452.599 70.7 446.699 70.7H421.999C420.799 70.7 420.399 71.1 420.399 72.2V74.4001C420.399 80.2001 423.499 83.1 429.399 83.1H446.799C448.699 83.1 449.799 84.0001 449.799 85.9001V92.8001C449.799 94.7001 448.699 95.7 446.799 95.7H427.199C413.899 95.7 406.199 88.2 406.199 75.2V52.3C406.199 39.3 413.899 31.8 427.199 31.8H435.199C448.499 31.8 456.199 39.3 456.199 52.3ZM432.999 43.4001H429.399C423.499 43.4001 420.399 46.3 420.399 52.1V57.7001C420.399 58.8001 420.799 59.2001 421.999 59.2001H438.999C440.899 59.2001 441.999 58.2 441.999 56.3V52C441.999 46.2 438.899 43.4001 432.999 43.4001Z" fill="black"/>
<path d="M517.801 52.3V61.4001C517.801 67.2001 514.201 70.7 508.301 70.7H483.601C482.401 70.7 482.001 71.1 482.001 72.2V74.4001C482.001 80.2001 485.101 83.1 491.001 83.1H508.401C510.301 83.1 511.401 84.0001 511.401 85.9001V92.8001C511.401 94.7001 510.301 95.7 508.401 95.7H488.801C475.501 95.7 467.801 88.2 467.801 75.2V52.3C467.801 39.3 475.501 31.8 488.801 31.8H496.801C510.101 31.8 517.801 39.3 517.801 52.3ZM494.601 43.4001H491.001C485.101 43.4001 482.001 46.3 482.001 52.1V57.7001C482.001 58.8001 482.401 59.2001 483.601 59.2001H500.601C502.501 59.2001 503.601 58.2 503.601 56.3V52C503.601 46.2 500.501 43.4001 494.601 43.4001Z" fill="black"/>
<path d="M545.499 31.8001H557.299C557.799 31.8001 558.499 31.9001 559.099 32.4001L564.599 36.7001C565.699 37.5001 566.799 36.6001 566.799 35.7001V11.5001C566.799 9.5001 567.699 8.6001 569.599 8.6001H577.999C579.899 8.6001 580.999 9.5001 580.999 11.5001V92.8001C580.999 94.8001 579.899 95.7001 577.999 95.7001H569.599C567.699 95.7001 566.799 94.8001 566.799 92.8001V91.8001C566.799 90.9001 565.599 89.9001 564.599 90.8001L559.099 95.1001C558.499 95.6001 557.799 95.7001 557.299 95.7001H545.499C535.699 95.7001 529.499 89.6001 529.499 80.0001V47.5001C529.399 37.9001 535.699 31.8001 545.499 31.8001ZM543.699 78.7001C543.699 81.4001 545.399 83.0001 548.099 83.0001H565.199C566.399 83.0001 566.799 82.6001 566.799 81.5001V45.9001C566.799 44.8001 566.399 44.4001 565.199 44.4001H548.099C545.399 44.4001 543.699 46.1001 543.699 48.7001V78.7001Z" fill="black"/>
<path d="M607.6 69.0002C597.8 69.0002 591.6 62.9002 591.6 53.3002V47.4002C591.6 37.8002 597.8 31.7002 607.6 31.7002H632.2C634.1 31.7002 635.2 32.6002 635.2 34.5002V41.4002C635.2 43.3002 634.1 44.3002 632.2 44.3002H610.3C607.6 44.3002 605.9 46.0002 605.9 48.6002V52.6002C605.9 55.3002 607.6 56.9002 610.3 56.9002H621.8C631.6 56.9002 637.8 63.0002 637.8 72.6002V80.0002C637.8 89.6002 631.6 95.7002 621.8 95.7002H597C595.1 95.7002 594 94.8002 594 92.9002V86.0002C594 84.1002 595.1 83.1002 597 83.1002H619.2C621.9 83.1002 623.6 81.4002 623.6 78.8002V73.4002C623.6 70.7002 621.9 69.1002 619.2 69.1002H607.6V69.0002Z" fill="black"/>
<path d="M664.2 25.0001C664.2 31.0001 660 34.9001 653.9 34.9001C647.8 34.9001 643.6 30.9001 643.6 25.0001C643.6 19.0001 647.8 15.1001 653.9 15.1001C660 15.1001 664.2 19.1001 664.2 25.0001ZM646.8 25.1001C646.8 29.3001 649.6 32.0001 653.9 32.0001C658.2 32.0001 661 29.3001 661 25.1001C661 20.8001 658.2 18.1001 653.9 18.1001C649.6 18.1001 646.8 20.8001 646.8 25.1001ZM652.6 26.6001V29.4001C652.6 29.6001 652.5 29.8001 652.2 29.8001H650.7C650.5 29.8001 650.3 29.6001 650.3 29.4001V20.6001C650.3 20.4001 650.4 20.2001 650.7 20.2001H655.6C656.8 20.2001 657.6 21.0001 657.6 22.2001V24.3001C657.6 25.6001 656.8 26.3001 655.6 26.3001L657.7 29.1001C657.8 29.2001 657.8 29.3001 657.8 29.3001C657.8 29.5001 657.6 29.7001 657.5 29.7001H655.7C655.6 29.7001 655.5 29.6001 655.4 29.5001L653 26.3001H652.8C652.6 26.4001 652.6 26.5001 652.6 26.6001ZM654.7 22.4001H652.7C652.5 22.4001 652.5 22.5001 652.5 22.6001V24.2001C652.5 24.4001 652.6 24.4001 652.7 24.4001H654.7C655 24.4001 655.2 24.2001 655.2 23.9001V22.9001C655.3 22.6001 655.1 22.4001 654.7 22.4001Z" fill="black"/>
<path d="M170.199 131.7L172.599 131.1V117.4L170.199 116.8V114H181.299C186.099 114 189.899 115.8 189.899 120.3C189.899 123.7 187.499 125.3 185.099 126L188.399 131L191.099 131.6V134.4H185.799L180.799 126.7H176.899V131L179.299 131.6V134.4H170.199V131.7ZM181.599 123.3C184.199 123.3 185.599 122.3 185.599 120.4C185.599 118.4 183.899 117.7 181.299 117.7H176.999V123.4H181.599V123.3Z" fill="#231F20"/>
<path d="M206.899 117.6V122.4H214.599V125.9H206.899V131H215.899L216.299 129.1H219.399L219.699 134.5H200.199V131.7L202.599 131.1V117.4L200.199 116.8V114H219.399L219.099 119.4H215.999L215.599 117.5H206.899V117.6Z" fill="#231F20"/>
<path d="M235.499 117.6V122.4H243.199V125.9H235.499V131H244.499L244.899 129.1H247.999L248.299 134.5H228.799V131.7L231.199 131.1V117.4L228.799 116.8V114H247.999L247.699 119.4H244.599L244.199 117.5H235.499V117.6Z" fill="#231F20"/>
<path d="M170.199 131.7L172.599 131.1V117.4L170.199 116.8V114H181.299C186.099 114 189.899 115.8 189.899 120.3C189.899 123.7 187.499 125.3 185.099 126L188.399 131L191.099 131.6V134.4H185.799L180.799 126.7H176.899V131L179.299 131.6V134.4H170.199V131.7ZM181.599 123.3C184.199 123.3 185.599 122.3 185.599 120.4C185.599 118.4 183.899 117.7 181.299 117.7H176.999V123.4H181.599V123.3Z" fill="#231F20"/>
<path d="M206.899 117.6V122.4H214.599V125.9H206.899V131H215.899L216.299 129.1H219.399L219.699 134.5H200.199V131.7L202.599 131.1V117.4L200.199 116.8V114H219.399L219.099 119.4H215.999L215.599 117.5H206.899V117.6Z" fill="#231F20"/>
<path d="M235.499 117.6V122.4H243.199V125.9H235.499V131H244.499L244.899 129.1H247.999L248.299 134.5H228.799V131.7L231.199 131.1V117.4L228.799 116.8V114H247.999L247.699 119.4H244.599L244.199 117.5H235.499V117.6Z" fill="#231F20"/>
<path d="M141.699 114.1V116.8L144.099 117.4V131.1L141.699 131.7V134.5H144.099H148.499H150.799V131.7L148.499 131.1V130.9V125.9H156.199V122.3H148.499V117.6H157.099L157.499 119.5H160.599L160.899 114.1H141.699Z" fill="#231F20"/>
<path d="M275.2 130.8C275.9 131.2 277.5 131.6 279.1 131.6C281.4 131.6 284.4 131.3 284.4 129C284.4 127.2 281.3 126.5 278.6 125.9C275.2 125.2 270.6 124.2 270.6 119.8C270.6 115.5 275.1 113.6 279.6 113.6C284.2 113.6 288.3 115.5 288.3 118.3C288.3 119.8 287.2 121.1 285.6 121.1C283.9 121.1 283 119.9 283 118.9C283 118.4 283.1 118 283.4 117.8C282.8 117.5 281.5 117.2 279.8 117.2C277.2 117.2 275 118.1 275 119.9C275 121.6 277.8 122.2 280.6 122.8C284.1 123.5 288.8 124.8 288.8 129.3C288.8 133 285.4 135.3 279.5 135.3C275.2 135.3 270.5 133.6 270.5 130.5C270.5 128.7 271.8 127.7 273.3 127.7C275.1 127.7 275.8 129 275.8 129.9C275.6 130.1 275.4 130.5 275.2 130.8Z" fill="#231F20"/>
<path d="M314.598 116.8V114H323.698V116.8L321.298 117.4V131.1L323.698 131.7V134.5H314.598V131.7L316.998 131.1V125.8H306.098V131.1L308.498 131.7V134.5H299.398V131.7L301.798 131.1V117.4L299.398 116.8V114H308.498V116.8L306.098 117.4V122.3H316.998V117.4L314.598 116.8Z" fill="#231F20"/>
<path d="M333.898 116.8V114H343.398V116.8L340.798 117.4V131.1L343.398 131.7V134.5H333.898V131.7L336.498 131.1V117.4L333.898 116.8Z" fill="#231F20"/>
<path d="M403.1 116.8V114H412.6V116.8L410 117.4V131.1L412.6 131.7V134.5H403.1V131.7L405.7 131.1V117.4L403.1 116.8Z" fill="#231F20"/>
<path d="M275.2 130.8C275.9 131.2 277.5 131.6 279.1 131.6C281.4 131.6 284.4 131.3 284.4 129C284.4 127.2 281.3 126.5 278.6 125.9C275.2 125.2 270.6 124.2 270.6 119.8C270.6 115.5 275.1 113.6 279.6 113.6C284.2 113.6 288.3 115.5 288.3 118.3C288.3 119.8 287.2 121.1 285.6 121.1C283.9 121.1 283 119.9 283 118.9C283 118.4 283.1 118 283.4 117.8C282.8 117.5 281.5 117.2 279.8 117.2C277.2 117.2 275 118.1 275 119.9C275 121.6 277.8 122.2 280.6 122.8C284.1 123.5 288.8 124.8 288.8 129.3C288.8 133 285.4 135.3 279.5 135.3C275.2 135.3 270.5 133.6 270.5 130.5C270.5 128.7 271.8 127.7 273.3 127.7C275.1 127.7 275.8 129 275.8 129.9C275.6 130.1 275.4 130.5 275.2 130.8Z" fill="#231F20"/>
<path d="M442.799 116.8V114H433.699V116.8L436.099 117.4V124.1C436.099 124.9 436.199 126.9 436.299 128.9L426.699 114.1H419.299V116.9L421.699 117.5V131.2L419.299 131.8V134.6H428.299V131.8L425.899 131.2V124.6C425.899 123.7 425.799 121.1 425.599 118.8C426.599 120.8 427.799 123.2 428.299 124L435.199 134.6H438.699H442.599V131.8L440.199 131.2V117.5L442.799 116.8Z" fill="#231F20"/>
<path d="M490.799 116.8V114H500.299V116.8L497.699 117.4V131.1L500.299 131.7V134.5H490.799V131.7L493.399 131.1V117.4L490.799 116.8Z" fill="#231F20"/>
<path d="M530.5 116.8V114H521.4V116.8L523.8 117.4V124.1C523.8 124.9 523.9 126.9 524 128.9L514.4 114.1H507V116.9L509.4 117.5V131.2L507 131.8V134.6H516V131.8L513.6 131.2V124.6C513.6 123.7 513.5 121.1 513.3 118.8C514.3 120.8 515.5 123.2 516 124L522.9 134.6H526.4H530.3V131.8L527.9 131.2V117.5L530.5 116.8Z" fill="#231F20"/>
<path d="M465.999 133.3V126.9V123.6V123.2H456.399V126.9H462.199V130.9C461.999 131 461.699 131 461.399 131.1C461.399 131.1 461.399 131.1 461.299 131.1C460.999 131.2 460.799 131.2 460.499 131.2H460.399C460.099 131.2 459.799 131.3 459.499 131.3H459.399C459.099 131.3 458.799 131.3 458.399 131.3C453.399 131.3 450.699 128.2 450.699 124.3C450.699 120.8 452.999 117 457.899 117C459.299 117 460.399 117.3 460.899 117.6C460.699 117.9 460.399 118.4 460.399 119C460.399 120.2 461.499 121.2 462.799 121.2C464.799 121.2 465.799 119.8 465.799 118.5C465.799 115.6 462.199 113.5 457.599 113.5C450.799 113.5 446.199 118.3 446.199 124.5C446.199 131 450.899 135 458.199 135C462.299 135 465.499 133.6 465.999 133.3Z" fill="#231F20"/>
<path d="M359.098 126.8H362.998C364.198 126.8 365.798 126.6 367.298 126.1C369.698 125.4 372.098 123.8 372.098 120.4C372.098 115.9 368.298 114.1 363.498 114.1H352.398V116.9L354.798 117.5V131.2L352.398 131.8V134.6H361.498V131.8L359.098 131.2V126.8ZM359.098 117.6H363.398C365.998 117.6 367.698 118.4 367.698 120.3C367.698 122.2 366.298 123.2 363.698 123.2H359.098V117.6Z" fill="#231F20"/>
<path d="M383.399 126.8H387.299C388.499 126.8 390.099 126.6 391.599 126.1C393.999 125.4 396.399 123.8 396.399 120.4C396.399 115.9 392.599 114.1 387.799 114.1H376.699V116.9L379.099 117.5V131.2L376.699 131.8V134.6H385.799V131.8L383.399 131.2V126.8ZM383.399 117.6H387.699C390.299 117.6 391.999 118.4 391.999 120.3C391.999 122.2 390.599 123.2 387.999 123.2H383.399V117.6Z" fill="#231F20"/>
<path d="M626.999 129H617.299L616.299 131.2L618.599 131.6V134.4H609.799V131.6L612.099 131L620.399 113.9H623.999L632.499 131L634.799 131.6V134.4H625.799V131.6L628.099 131.2L626.999 129ZM618.699 125.7H625.599L623.299 121C622.899 120.1 622.399 118.7 622.099 117.8C621.799 118.7 621.199 120.1 620.799 121L618.699 125.7Z" fill="#231F20"/>
<path d="M589.3 130.8C590 131.2 591.6 131.6 593.2 131.6C595.5 131.6 598.5 131.3 598.5 129C598.5 127.2 595.4 126.5 592.7 125.9C589.3 125.2 584.7 124.2 584.7 119.8C584.7 115.5 589.2 113.6 593.7 113.6C598.3 113.6 602.4 115.5 602.4 118.3C602.4 119.8 601.3 121.1 599.7 121.1C598 121.1 597.1 119.9 597.1 118.9C597.1 118.4 597.2 118 597.5 117.8C596.9 117.5 595.6 117.2 593.9 117.2C591.3 117.2 589.1 118.1 589.1 119.9C589.1 121.6 591.9 122.2 594.7 122.8C598.2 123.5 602.9 124.8 602.9 129.3C602.9 133 599.5 135.3 593.6 135.3C589.3 135.3 584.6 133.6 584.6 130.5C584.6 128.7 585.9 127.7 587.4 127.7C589.2 127.7 589.9 129 589.9 129.9C589.7 130.1 589.5 130.5 589.3 130.8Z" fill="#231F20"/>
<path d="M554.5 117.2C554 117.2 553 116.7 553 116.7C553 115.7 553 114.9 553 113.8C555.4 113.8 557.9 113.8 560.3 113.8C560.3 114.8 560.3 115.8 560.3 116.8C559.8 116.8 559.4 117.4 558.8 117.4C558.8 117.6 558.8 119 558.8 119.2C558.8 122.7 558.8 124.5 558.8 128C558.8 128.4 558.8 128.9 559 129.3C559.3 130.4 560.1 131 561.2 131.2C562.7 131.5 564.2 131.5 565.7 131.2C567.3 130.9 568.1 129.9 568.1 128.4C568.1 124.7 568.1 121 568.1 117.3C568.1 117.2 568.1 117.4 568 117.2C567.5 117.2 567 116.9 566.5 116.9C566.5 115.8 566.5 114.8 566.5 113.8C568.9 113.8 571.4 113.8 573.8 113.8C573.8 114.8 573.8 115.8 573.8 116.8C573.3 116.8 572.9 117.2 572.3 117.2C572.3 117.4 572.3 117.2 572.3 117.4C572.3 120.9 572.3 124.5 572.3 128C572.3 128.9 572.2 129.8 572 130.6C571.4 132.7 569.8 133.8 567.7 134.2C564.8 134.8 561.9 134.8 559 134.1C556.1 133.4 554.5 131.5 554.5 128.5C554.5 124.8 554.5 121.1 554.5 117.4C554.5 117.4 554.5 117.5 554.5 117.2Z" fill="#231F20"/>
</svg>
