<?xml version="1.0" encoding="utf-8"?>
<!-- Generator: Adobe Illustrator 25.3.1, SVG Export Plug-In . SVG Version: 6.00 Build 0)  -->
<svg version="1.1" id="Layer_1" xmlns="http://www.w3.org/2000/svg" xmlns:xlink="http://www.w3.org/1999/xlink" x="0px" y="0px"
	 viewBox="0 0 504 216" style="enable-background:new 0 0 504 216;" xml:space="preserve">
<style type="text/css">
	.st0{fill:#BBD976;stroke:#000000;stroke-width:0.75;}
	.st1{fill:#EF404A;stroke:#000000;stroke-width:0.75;}
	.st2{fill-rule:evenodd;clip-rule:evenodd;}
	.st3{fill:#FFF200;stroke:#000000;stroke-width:0.5;}
	.st4{fill:none;stroke:#000000;stroke-width:0.5;stroke-linecap:round;stroke-miterlimit:3.8637;}
	.st5{fill:none;stroke:#000000;stroke-width:0.5;stroke-miterlimit:3.8637;}
</style>
<path class="st0" d="M294.14,99.26c1.61-1.64,2.55-2.39,3.48-4.14c0.11-0.21,2.12-9.81-0.42-11.67c-0.52-0.38,2.67-1.51,3.92-5.14
	c1.65-4.79-1.81-3.94-0.5-6l0.66-0.08l0,0c8.12-7.25,43.82-11.28,62.73,9.18c2.55,3.34,2.12,3.97,0.51,4.08
	c-10.71,0.96-13.47,2.87-18.36,5.61C330.65,100.9,305.15,107.92,294.14,99.26z"/>
<path class="st0" d="M220.99,108.25c1.41,0.62,7.07,3.5,16.01,4.07c0,0,0.45,2.05-0.7,5.31c-0.94,2.66-2.77,5.16-4.89,7.14
	c-6.16,6.74-10.41,10.14-18.36,14.28c-4.47,2.5-7.54,4.12-11.22,6.63c-2.36,1.61-7.18,2.41-8.2,3.34c-3.7,3.37-4.08,9.9-2.51,15.02
	c-9.86-5.97-4.76-21.91,4.59-28.56c1.06-1.21-0.23-2.49,1.53-6.12C205.37,112.62,220.99,108.25,220.99,108.25z"/>
<path class="st0" d="M220.99,108.25c0.04-0.01-2.55-1-3.8-2.43c-4.8-5.52-5.88-10.12-4.62-12.38c0,0-6.38-2.12-10.75-8.69
	c-2.28-3.42-3.19-7.25-3.19-7.25c-6.34-2.78-22.47-6.06-30.46,1.36c-4.34-0.62-10.29,0.79-15.3,2.04c-5.4,1.3-11.35,5.55-9.69,12.24
	c4.08-4.99,10.03-8.61,15.3-7.14c7.9,1.93,15.34,5.76,21.93,10.2c-9.14,1.08-14.66,3.42-19.89,8.16
	c-14.11,12.26-14.54,25.22-16.32,37.74c11.35-1.47,20.7-4.87,30.6-8.67c10.28-4.27,24.73-13.41,33.66-17.85
	C208.46,115.58,219.81,108.64,220.99,108.25z"/>
<path class="st1" d="M212.52,93.46c-1.14,2.78,0.13,7.03,4.59,12.24c2.56,2.23,4.94,3.06,6.12,3.57c1.18,0.5,5.36,2.32,13.77,3.06
	c5.4,0.54,13.9,2.19,13.77,2.04c0.77,2.27,3.11,3.12,4.59,3.06c5.74-0.15,5.96,3.04,8.67,1.02c2.17-1.81,1.54-1.17,4.59-1.02
	c2.26-0.15,4.38-0.15,7.14,0.51c0.01,0.19-1-8.5,2.55-11.22c3.06-2.58,9.78-1.77,9.69-1.53c1.9-2.47,1.95-2.68,2.04-4.59
	c2.83,0.64,6.76-3.51,7.65-5.61c-0.04-0.24,2.09-9.37-0.51-11.73c-0.38,0.02,3.24-1.89,4.08-5.61c1.49-4.15-2.12-3.08-0.51-5.61
	c2.85-5.12,3.07-11.29-2.04-13.26c1.07-1.64,2.34-3.13,3.06-5.1c1.2-2.28-1.57-2.49-3.06-4.08c0.01-0.32,0.43-1.17,0.51-1.53
	c0.13-3.04-3.9-3.04-5.61-5.1c-0.63-0.7-2.54,0.57-3.57,0c-1.52-1.55-2.8-4.74-2.55-7.14c-0.46-2.7-4.71-1.85-6.12-4.08
	c-0.08-0.53-0.08-1.81-0.51-2.04c-1.27-1.04-1.69,0.87-3.06,1.02c-1.82,0.27-0.76-2.7-2.04-3.06c-2.76-0.07-4.24-3.47-7.14-2.55
	c-0.72,0.36-1.78,0.78-2.04,1.53c-0.59-0.53-1.23-1.38-2.04-1.02c-1.31,0.91-3.44,1.97-4.08,3.57c-0.21-0.75-0.63-1.6-2.04-2.04
	c-0.5-0.41-1.35-0.41-2.04,0c-0.16-1.68-1.23-3.81-3.06-4.59c-1.99-0.7-3.05,2.48-5.1,2.04c-0.08,0.23-0.5,0.02-0.51,0
	c-0.42-1.04-0.84-1.47-2.04-1.53c-1.78-0.15-2.42,1.76-2.04,4.08c-1.01-0.19-2.71,1.08-2.55,1.02c-6.75-10.35-12.7,2.4-16.83,2.04
	c0.09,0.15-2.03-1.13-3.06,0.51c-3.65,7.71-5.14,2.61-6.63,5.1c-0.42,1.34,1.07,2.4,1.02,4.08c0.05,0.87-1.01,1.51-1.02,1.53
	c-1.69-2.15-5.52-2.79-6.12,0c-0.67,1.46,0.18,4.23-1.53,5.61c-3.18-2.66-3.85-1.55-4.47-0.93c-0.56,0.56-0.19,3.16-0.12,5.01
	c-0.29,1.12-1.57,2.4-2.04,3.57c-1.44,1.8,1.11,3.29,1.02,5.1c-0.12,1.17-1.18,0.95-1.53,3.06c-0.5,1.93,0.98,2.36,0.51,3.06
	C194.8,76.69,201.82,89.23,212.52,93.46L212.52,93.46z"/>
<path class="st2" d="M46.93,99.92c-0.14-7.08-6.09-8.14-13.77-8.16l-0.1-5.45h50.07c14.99,0.45,29.32,9.08,29.08,22.28
	c0.24,13.15-12.51,18.47-22.44,21.42c13.12,1.72,28.42,7.03,28.56,22.44c-0.14,20.08-18.63,25.39-30.09,25.5
	c-9.36-0.11-55.59,0-55.59,0v-5.1c0,0,14.5,1.14,14.13-7.89L46.93,99.92z M61.15,127.47c0,0,16.66-0.01,16.89,0
	c4.56,0.16,20.17,0.02,20.4-18.36C98.21,99.22,88.65,92,80.59,91.76h-9.18c-5.15-0.4-10.38,2.36-10.2,7.65L61.15,127.47z
	 M61.21,163.67c0.03,8.44,7.04,9.29,12.75,9.18c0.24,0.11,4.92,0.11,5.1,0c14.27,0.11,23.4-5.42,23.46-20.4
	c-0.06-11.16-10.89-19.66-24.48-19.89l-16.89-0.1L61.21,163.67z"/>
<path class="st3" d="M244.67,72.23c-0.81-2.36-0.39-4.91,1.53-7.65c1.91-3.85,7.22-2.36,9.18,2.55c1.02,2.1,1.23,3.16,1.53,5.1
	c-0.52,0.19-1.37,1.04-2.55,3.06c-1.58,2.23-4.13,2.23-4.08,2.04c-1.54,0.19-3.02-1.94-4.59-3.57c-0.4-0.33-0.44-0.45-0.94-0.7
	L244.67,72.23L244.67,72.23z"/>
<path d="M148.79,106.4c-8.15-0.43-9.43,2.14-9.18,7.14v44.88c-0.25,7.92,2.73,15.15,16.32,15.3c14.88-0.15,18.28-9.71,18.36-16.32
	c0.13-0.19,0-43.35,0-43.35c0.13-0.19,0.13-4.23-2.55-6.12c-2.84-1.94-7.94-1.51-8.16-1.53l-0.01-2.95h24.48l0.01,2.95
	c0,0-5.59-0.69-8.16,1.53c-2.13,1.84-2.04,6.63-2.04,6.63v42.84c0.18,9.79-4.5,20.21-21.93,20.4c-21.67-0.19-28.04-7.84-28.05-18.36
	v-45.9c0.01-4.78-1.59-7.17-9.69-7.14v-2.93h30.6V106.4L148.79,106.4z"/>
<path d="M319.64,175.38c5.66-0.19,10.55-2.74,10.71-10.71v-49.98c-0.59-7.52-4.44-8.19-10.71-8.16v-3.06h61.2v25.5h-3.57
	c-2.46-11.16-9.05-22.21-22.44-22.44c0,0-2.33,0.23-3.57,0c-4.29,0.23-9.81,1.72-10.2,8.16v22.44h6.12
	c6.38-0.19,10.42-4.87,10.2-12.24h3.57v27.54h-3.57c-0.3-8.25-3.76-11.31-10.14-11.37c0.01,0.06-6.18,0.15-6.18,0.15v24.48
	c0.18,6.95,3.79,9.07,8.67,9.18c22.96-0.11,25.15-9.16,28.37-26.13h2.66v29.09l-61.12,0.11V175.38L319.64,175.38z"/>
<path class="st4" d="M244.49,67.86c-1.52-1.94-5.47-4.36-8.49-4.81"/>
<path class="st4" d="M247.69,62.81c-0.63-2.96-2.29-5.69-5.06-7.41"/>
<path class="st4" d="M244.67,54.38c2.22,1.89,3.92,4.44,4.59,7.65"/>
<path class="st4" d="M251.81,55.4c-0.04-2.96-0.46-4.02-1.53-6.63"/>
<path class="st4" d="M252.32,47.75c1.79,5.33,1.79,11.49,1.02,14.79"/>
<path class="st4" d="M241.1,28.37c3.36,5.29,7.7,10.9,9.18,16.83"/>
<path class="st4" d="M224.27,30.41c2.43,2.06,12.63,10.56,14.79,15.3"/>
<path class="st4" d="M217.93,35.32c2.9,3.84,3.88,0.98,8.38,5.8"/>
<path class="st4" d="M151.85,133.43c-1.65-1.09-3.91-1.2-6.17-0.63"/>
<path class="st4" d="M154.4,120.68c0.69-0.24,6.1-1.14,12.22-0.56"/>
<path class="st4" d="M187.04,124.25c1.41-3.81,1.62-7.42,1.02-11.22"/>
<path class="st5" d="M250.75,114.31c5.7-2.06,7.1-4.56,8.75-6.88"/>
<path class="st4" d="M298.22,86c-3.73-2.53-9.68-2.32-14.28-1.02"/>
<path class="st4" d="M290.57,86c1.15-0.41,4.34,0.44,5.61,1.02"/>
<path class="st4" d="M336.98,93.14c-6.37-2.87-10.62-6.27-14.28-10.2"/>
<path class="st4" d="M312.89,84.06c1.79,2.1,4.54,4.93,8.28,7.04"/>
<path class="st4" d="M313.01,96.2c-5.56-1.89-11.51-7.84-14.28-7.65"/>
<path class="st4" d="M298.73,91.1c1.71,1.51,7.02,4.69,11.22,6.63c1.96,1.25,5.79,2.1,5.61,2.04"/>
<path class="st5" d="M314.74,102.62c-7.98-2.06-11.76-3.64-17.03-7.95"/>
<path class="st4" d="M296.69,97.22c1.83,1.55,3.53,2.82,6.12,3.57"/>
<path class="st4" d="M191.63,87.53c-3.61,2.53-8.07,4.23-15.3,5.1"/>
<path class="st4" d="M187.55,92.63c2.81-0.66,6-2.15,7.65-4.59"/>
<path class="st4" d="M179.39,76.31c1.2,2.48,2.47,4.61,3.06,7.65"/>
<path class="st4" d="M181.94,76.82c1.62,2.19,2.26,3.25,3.06,7.65"/>
<path class="st4" d="M186.02,79.88c0.52,0.83,0.94,2.31,1.02,2.55c-0.08-0.24,0.57,1.07,0.52,2.88"/>
<path class="st4" d="M192.65,87.02c-0.59-2.91-1.65-6.31-3.06-8.67"/>
<path class="st4" d="M177.86,82.94c-2.8,0.95-5.99,1.59-9.69,2.04"/>
<path class="st5" d="M168.17,78.86c4.13,0.78,3.28,1,6.12,2.04c0.35,0.02,2.19,1.23,3.06,1.53c0.87,0.3,11.95,3.31,13.49,3.94
	c3.44,1.41,14.45,4.47,17.5,5"/>
<path class="st4" d="M178.88,89.57c3.62-0.36,8.22-1.96,9.83-3.25"/>
<path class="st5" d="M191.12,75.29c1.58,2.65,3.39,7.76,4.19,12.46"/>
<path class="st5" d="M198.26,88.55c-0.89-3.38-2.16-8.69-5.1-12.75"/>
<path class="st4" d="M170.38,79.41c-2.27,0.16-7.58,1.44-7.83,1.49"/>
<path class="st5" d="M206.93,47.24c2.98,1.72,3.83,2.23,6.12,2.55"/>
<path class="st4" d="M185,120.68c0.05,2.31-1.44,6.78-2.55,9.18"/>
<path class="st4" d="M158.99,137.51c1.2-3.25,3.56-8.17,3.72-13.95"/>
<path class="st4" d="M163.58,131.39c0.64-3.93,1.64-6.89,1.8-10.02"/>
<path class="st4" d="M205.98,102.26c-2.29-2.4-6.69-5.19-10.78-6.57"/>
<path class="st4" d="M189.08,95.69c3.41,0.74,8.29,3.29,10.2,5.1"/>
<path class="st5" d="M164.67,101.33c6.81-1.04,21.23-0.43,23.14,7.24"/>
<path class="st4" d="M150.83,118.64c4.89-1.81,16.38-3.03,21.57-2.27"/>
<path class="st5" d="M144.2,142.1c1.28-1.81,3.52-3.81,5.61-6.12c1.34-1.48,8.21-9.45,12.75-12.75c4.8-3.49,13.12-8.89,13.12-8.89
	c7.66-5,33.85-13.8,37.88-13.55"/>
<path class="st4" d="M237.53,92.12c7.44-3.98,11.27-7.82,14.28-14.93c0.18-0.11,0.17,3.31-1.02,6.26
	c-2.2,6.39-7.94,10.64-13.77,13.77"/>
<path class="st4" d="M252.83,93.14c1.28-3.72,1.49-5.85,1.53-9.18c0.39-1.55-0.73-5.76-1.8-6.71c0.22,11.37-5.68,17.91-12.48,23.03"
	/>
<path class="st4" d="M251.81,99.26c2.73-3.47,3.66-6.03,4.08-9.18c1.17-8.71-3.22-13.28-3.08-13.14c5.56,5.25,6.19,13.97,4.1,19.77"
	/>
<path class="st4" d="M254.87,78.35c6.47,4.27,8.17,12.98,4.59,22.95"/>
<path class="st4" d="M261.89,103.58c1.24-2.15,4.76-12.47,1.14-18.6c-2.54-3.85-3.65-5.57-9.35-8.3c0.81-0.87,4.9-0.43,5.78-0.37
	c5.49,2.48,7.83,2.7,13.77,1.02"/>
<path class="st4" d="M269.15,101.81c0.05-4.1-2.76-8.48-4.34-9.31"/>
<path class="st4" d="M270.17,91.1c1.37,1.63,2,3.42,2.55,5.1"/>
<path class="st4" d="M275.27,94.67c-0.33-1.21-0.99-2.09-2.35-3.17"/>
<path class="st4" d="M281.9,68.15c-3.35,2.14-4.63,8.73-17.85,6.63c-2.36-0.3-8.15-1.49-10.67,1.72c3-3.81,7.11-3.87,11.69-3.25
	c4.34,0.44,9.65-2.74,13.26-6.12"/>
<path class="st4" d="M227.33,81.41c6.59-0.28,6.88-6.02,21.11-4.6c-13.17-3.13-16.85,2.19-24.68,2.56"/>
<path class="st4" d="M214.58,76.31c12.33,2.06,18.49-4.74,33.15,0"/>
<path class="st4" d="M223.76,67.64c9.1,5.42,16.75,3.72,24.48,8.67"/>
<path class="st5" d="M250.28,77.33c-1.48,0.19-2.97-1.94-4.59-3.57c-1.78-1.55-3.9-2.83-5.1-3.57c-4.97-3.08-6.03-3.08-10.71-5.1
	c-6.16-2.87-14.02-6.06-16.32-14.28c-0.04-0.49-0.46-1.55-0.51-2.04c-0.43-3.07,1.78-5.65,1.53-7.14"/>
<path class="st4" d="M247.09,66.53c-0.89,1.76-1.9,5.72-0.65,7.91"/>
<path class="st4" d="M254.43,74.97c0.47-3.75-0.53-7.86-2.62-9.88"/>
<path class="st4" d="M302.67,86.72c0.18-2.11,1.38-5.37,3.2-8.37c1.15-1.89,4.55-5.93,8.16-7.65"/>
<path class="st4" d="M309.44,71.21c-4.33,3.12-8.37,9.92-8.67,16.32"/>
<path class="st4" d="M309.95,78.35c-1.86,1.29-2.71,2.36-3.57,4.08c-0.63,1.68-0.76,1.82-1.19,3.51"/>
<path class="st4" d="M315.56,76.82c-2.37,1.97-4.46,5.83-5.19,7.51"/>
<path class="st4" d="M318.11,78.35c-1.31,1.08-2.91,3.16-3.89,5.18"/>
<path class="st4" d="M321.68,82.43c2.77-4.49,7.02-8.31,10.71-10.2"/>
<path class="st4" d="M325.11,81.8c1.66-2.74,5.07-5.98,8.3-7.53"/>
<path class="st4" d="M340.55,76.82c-2.5,1.12-4.34,2.9-5.88,4.58"/>
<path class="st4" d="M350.75,77.33c-3.14,0.19-6.2,1.97-8.67,4.59"/>
<path class="st4" d="M345.3,82.07c0.81-0.49,2.95-2,4.94-2.7"/>
<path class="st4" d="M342.08,81.92c5.53,0.49,9.36,0.7,13.26,1.53c2.05,0.23,7.04,1.96,10.01,1.94"/>
<path class="st4" d="M331.88,70.19c-3.82,1.8-10.68,8.35-12.21,12.54"/>
<path class="st5" d="M307.4,85.49c4.13,5.38,15,12.13,22.34,13.38"/>
<path class="st4" d="M349.58,88.56c-5.31-2.19-7.81-5-9.46-6.62"/>
<path class="st4" d="M334.94,81.92c1.83,2.19,3.53,3.04,5.61,4.59"/>
<path class="st4" d="M330.56,81.94c2.94,3.38,6.85,6.63,11.01,8.65"/>
<path class="st4" d="M342.08,81.92c-3.61-0.58-16.99,0.06-18.87,0.51c-8.75,0.83-17.25,2.95-24.48,6.12"/>
<path class="st4" d="M325.76,82.43c1.45,1.68,2.73,3.16,5.1,4.08"/>
<path class="st4" d="M333.92,94.16c-7.56-3.47-11.81-7.72-14.28-10.71"/>
<path class="st4" d="M291.25,43.29c-0.42,2.4-2.07,4.27-3.23,5.99"/>
<path class="st4" d="M284.96,51.83c0.39-2.57,4.08-6.6,4.67-9.08"/>
<path class="st4" d="M287.51,38.06c-0.25,4.18-0.89,6.1-3.06,9.18"/>
<path class="st4" d="M276.8,35c0.05-1.47,0.6-3.03,0.63-4.06"/>
<path class="st4" d="M264.05,68.15c1.75-1.89,3.24-4.23,4.08-6.63c3.19-6.95,4.04-14.18,5.1-21.42c0.22-4.23,0.28-8.93-0.45-13.41"
	/>
<path class="st4" d="M264.05,64.07c-1.01,2.4-4.2,5.59-7.14,7.14"/>
<path class="st5" d="M147,83.69c1.15-0.69,5.34-0.62,8.94,1.88"/>
<path class="st5" d="M174,75.69c1.92,2.02,3.55,5.7,4.35,6.91"/>
<path class="st4" d="M250.28,66.62c1.71,2.19,1.92,3.89,1.53,6.63"/>
<path class="st4" d="M293.12,43.16c0.12,2.25-1.82,3.12-2.04,6.12"/>
<path class="st4" d="M261.5,60.5c-0.16,2.78-1.01,4.69-3.06,7.14"/>
<path class="st4" d="M283.43,67.13c2.34-1.09,2.77-1.72,6.63-1.53"/>
<path class="st4" d="M262.01,83.45c1.66,0.87,2.94,1.08,6.12,0.51"/>
<path class="st4" d="M155.93,128.84c-1.91-0.11-3.39-0.32-5.1,0"/>
<path class="st4" d="M157.46,127.82c0.18,3.46-0.04,5.59-1.02,7.65"/>
<path class="st4" d="M264.56,49.79c-2.16-6.48-1.74-14.31-4.08-20.4"/>
<path class="st4" d="M256.4,27.35c-5.72,4.18-6.11,12.34-4.08,16.83c1.15,2.74,2.85,4.86,4.08,7.14c0.9,1.97,0.69,14.3-1.02,15.3"/>
<path class="st4" d="M243.65,27.35c0,0,0,1.52,0.94,2.77"/>
<path class="st5" d="M264.05,87.02c2.81,0.91,4.51,2.19,6.12,4.08c2.64,0.44,7.74-0.19,13.26,1.53c1.49,0.4,2.13,1.25,3.06,2.04
	c2.05,1.76,3.72,3.89,3.57,6.12"/>
<path class="st4" d="M280.37,83.96c5.83-1.98,12.63-3.47,16.83-0.51"/>
<path class="st4" d="M298.73,58.97c-14.61-3.85-19.55,4.95-28.05,9.69c-7.22,4.18-10.62,2.06-13.77,3.57"/>
<path class="st4" d="M212.54,93.65c1.53-2.59,4.55-3.53,9.18-3.57c2.58-0.02,5.83-1.94,7.65-3.57c3.07-2.62,4.55-5.59,7.65-7.14
	c2.85-1.64,8.01-3.03,11.23-2.25c1.03,0.06,2.25,0.39,1.01,1.74c-2.16,2.7-4.5,4.18-8.16,6.12"/>
<path d="M199.27,146.94l0.01,22.7c0.08,6.7-7.99,5.43-8.16,5.61v2.68h29.07v-2.68c0.21,0.03-9.14,0.46-9.18-6.12
	c0.04-0.22,0-26.01,0-26.01s9.6-0.14,9.69,0c8.62,1.77,8.84,8.15,8.67,15.81c0.17,7.43,3.99,19.96,15.81,19.89
	c14.74,0.29,11.73-18.36,11.73-18.36h-3.06c0,0,1.61,9.51-4.59,9.69c-6.12-0.18-6.34-6.13-10.2-15.81
	c-4.64-11.78-12.92-12.63-12.75-12.75c13.85-0.52,26.18-5.41,26.01-17.85c0.17-15.61-15.88-20.81-29.47-20.29
	c-0.22,0.12,0.31,3.19,0.4,2.95c8.41,0.67,16.91,5.34,16.83,16.32c0.08,7.94-5.87,16.01-15.3,15.81c0.4-0.01-10.3-0.02-10.3-0.02
	l-9.96,5.98L199.27,146.94z"/>
<path d="M211.16,113.68c0.09,0.12-1.33-7.17,5.97-7.28c3.75-0.05,6.08,0.24,6.12,0c8.46,0.67,13.09-3.47-0.5-2.95H191.5l0.13,2.44
	c0.1,0.17,7.78-0.1,7.65,5.61l-0.01,14.25c2.35-3.1,5.31-7.24,7.04-8.44L211.16,113.68z"/>
<path class="st5" d="M180.41,96.2c8.46-1.04,19.94-1.04,31.62,1.02"/>
<path class="st4" d="M251.15,35.59c-4.38-5.94-3.15-10.72-3.15-10.72"/>
<path class="st0" d="M255.44,117.38c5.88-0.12,5.88,3.31,8.81,0.81c2.19-1.86,2.36-0.52,4.5-0.81c1.81-0.25,4.38,0.06,7,0.56
	c0.19,0.04-1.06-8.25,2.56-11.25c2.56-2.12,7.84-1.99,7.75-1.75l-3.65,4.01c2.76,0.02,5.95,1.08,7.65,2.04
	c7.22,3.51,9.77,6.69,16.83,15.81c2.89,3.74,6.12,10.22,6.12,10.2c2.55,4.06,2.76,7.25,2.55,10.2c0.42,5.33-0.43,11.92-2.04,15.3
	c-0.3,1.51-4.12-0.83-5.1-1.53c-2.64-2.06-3.27-2.06-6.12-5.1c-4.17-3.55-15.22-7.8-20.4-12.24l-12.75-10.2
	c-7.78-4.91-8.63-12.77-13.26-15.81L255.44,117.38z"/>
<path class="st5" d="M186.02,156.89c0.73-3.51,4.03-6.77,8.16-8.16"/>
<path class="st4" d="M231.88,113.28c-0.12,0.23,0.56,5.68,0.55,7.4"/>
<path class="st4" d="M211.52,115.58c4.55-0.02,8.56,1.86,12.12,4.47"/>
<path class="st4" d="M225.06,118.81c-1.69-1.81-5.59-3.47-7.93-4.25"/>
<path class="st4" d="M223.76,114.05c1.03,0.44,2.09,1.29,3.57,2.55"/>
<path class="st4" d="M213.05,139.55c3.02-5.72,3.92-9.92,4.64-15.68"/>
<path class="st4" d="M215.94,124.62c-2.5-3.17-5.18-4.39-9.01-4.96"/>
<path class="st4" d="M205.44,129.69c-0.51-0.55-1.65-1.79-4.63-1.87"/>
<path class="st4" d="M204.38,123.74c2.34-0.11,5.83,1.46,8.16,3.06"/>
<path class="st4" d="M211.01,137.51c1.88-3.04,3.79-10.05,3.57-11.73"/>
<path class="st5" d="M195.35,135.73c2.3-2.57,2.66-1.26,6.99-4.33c1.96-1.53,7.92-3.44,10.2-4.59c5.8-2.93,11.82-7.42,13.77-8.67
	c2.73-2.36,3.63-5.32,8.32-5.88"/>
<path class="st4" d="M227.84,117.11c0.56,2.91,0.77,7.8-1.02,12.24"/>
<path class="st4" d="M211.52,127.31c-0.33,1.21-2.25,8.65-5.1,12.75"/>
<path class="st5" d="M203.87,130.37c-1.25,5.87-6.19,10.5-6.74,17.07"/>
<path class="st5" d="M264.62,118.25c-0.89,2.87-1.28,7.7-0.47,10.7"/>
<path class="st4" d="M301.74,121.25c-3.14-0.53-4.91-1.02-6.58-1.08"/>
<path class="st4" d="M283.94,122.72c4.17-0.79,9.7-0.79,13.77,0"/>
<path class="st5" d="M305.99,125.9c-9.17-0.87-13.21-1-17.97-0.12"/>
<path class="st4" d="M291.08,119.66c-2.54-0.07-4.88,0.15-6.12,0c-1.52-0.07-4.83,0.83-5.14,0.13c2,1.76,5.53,4.27,7.69,5.99
	c1.66,2.1,4.21,4.23,6.12,5.61c1.28,1.17,5.53,5.84,8.16,8.16"/>
<path class="st5" d="M307.08,133.09c-4.24-1-9.62-0.75-12.94-1.19"/>
<path class="st4" d="M313.52,152.81c-0.97-1.13-2.25-1.77-4.08-2.04"/>
<path class="st4" d="M307.91,147.71c-2.37,3.55-2.37,8.22-2.55,8.16"/>
<path class="st5" d="M296.69,134.53c-0.08-0.07-1.35,6.53,0.51,12.16c1.11,2.87,2.39,6.98,3.79,8.27"/>
<path class="st4" d="M290.06,137c-1.11-1.83-1.23-7.7-0.94-9.38"/>
<path class="st4" d="M287,125.78c-0.8,3.38-1.5,7.59-0.51,11.73"/>
<path class="st4" d="M282.92,139.55c-0.45-5.33-1.54-10.28,1.53-15.81"/>
<path class="st5" d="M312.62,162.88c0.05,0.23-0.5-3.12-1.65-7.51c-0.76-2.62-2.03-5.8-3.06-7.65c-0.89-1.77-1.52-3.04-3.06-5.61"/>
<path class="st4" d="M314.03,156.38c-1.06-1.3-2.33-2.15-3.57-2.55"/>
<path class="st5" d="M261.5,119.15c-0.59,2.99-0.38,5.33,0,6.12"/>
<path class="st4" d="M297.71,116.6c-13.01-4.43-16.14-1.29-17.85-1.53"/>
<path class="st2" d="M268.13,113.65c0.01-1.06,0.03-6.14-5.1-6.12h-5.1v-4.08h35.19c20.94,0.03,25.62,11.93,25.5,19.89
	c0.12,5.85-3.88,19.12-22.47,19.75c-2.94,0.1-16.41,0-16.41,0l0.12,22.58c-0.22,7.51,2.33,8.99,10.2,9.18v3.06h-31.11v-3.06
	c5.17-0.19,9.42-0.61,9.18-8.16V113.65z M279.74,138.4h12.97c14.84,0,16.16-10.13,15.94-15.62c-0.47-11.56-8.91-15-22.67-15.25
	c-6.77-0.12-6.24,4.78-6.24,4.78V138.4z"/>
<path d="M386.72,175.35c5.66-0.19,10.55-2.74,10.71-10.71v-49.98c-0.59-7.52-4.44-8.19-10.71-8.16v-3.06h61.2v25.5h-3.57
	c-2.46-11.16-9.05-22.21-22.44-22.44h-3.57c-4.29,0.23-9.81,1.72-10.2,8.16v22.44h6.12c6.38-0.19,10.42-4.87,10.2-12.24h3.57v27.54
	h-3.57c-0.3-8.25-3.34-11.28-9.72-11.34c0.01,0.06-6.6,0.12-6.6,0.12v24.48c0.18,6.95,3.79,9.07,8.67,9.18
	c22.96-0.11,25.15-9.16,28.37-26.13h2.66v29.09l-61.12,0.11V175.35L386.72,175.35z"/>
<g>
	<path d="M458.47,165.51c3.87,0,6.92,3.01,6.92,6.84c0,3.91-3.05,6.92-6.96,6.92c-3.91,0-7.01-3.01-7.01-6.92
		c0-3.83,3.09-6.84,7.01-6.84H458.47z M458.38,166.71c-3.1,0-5.46,2.54-5.46,5.63c0,3.18,2.36,5.67,5.55,5.67
		c3.09,0.04,5.37-2.49,5.37-5.63c0-3.14-2.28-5.67-5.42-5.67H458.38z M457.18,176.13h-1.33v-7.18c0.73-0.13,1.51-0.21,2.49-0.21
		c1.2,0,1.81,0.21,2.28,0.56c0.43,0.3,0.73,0.86,0.73,1.51c0,0.9-0.65,1.46-1.42,1.72v0.09c0.64,0.26,0.99,0.82,1.2,1.72
		c0.21,1.12,0.34,1.55,0.52,1.81h-1.38c-0.21-0.26-0.39-0.9-0.56-1.89c-0.17-0.77-0.64-1.12-1.68-1.12h-0.86V176.13z M457.18,172.08
		h0.9c0.99,0,1.85-0.3,1.85-1.16c0-0.69-0.43-1.16-1.72-1.16c-0.52,0-0.82,0.04-1.03,0.09V172.08z"/>
</g>
</svg>
