<svg xmlns="http://www.w3.org/2000/svg" width="221.0467" height="89.5544" viewBox="0 0 221.0467 89.5544">
  <defs>
    <style>
      .logo-1 {
        fill: #5e5847;
      }

      .logo-2, .logo-3, .logo-5, .logo-6, .logo-8 {
        fill: none;
        stroke: #5e5847;
        stroke-linecap: round;
        stroke-linejoin: round;
      }

      .logo-2 {
        stroke-width: 1.7294px;
      }

      .logo-3 {
        stroke-width: 1.1343px;
      }

      .logo-4 {
        fill: #c7ae86;
      }

      .logo-5 {
        stroke-width: 0.8856px;
      }

      .logo-6 {
        stroke-width: 1.0231px;
      }

      .logo-7 {
        fill: #95a823;
      }

      .logo-8 {
        stroke-width: 1.0022px;
      }
    </style>
  </defs>
  <g>
    <g>
      <g>
        <g>
          <g>
            <polygon class="logo-1" points="85.393 14.442 81.577 14.442 81.577 21.32 81.577 22.415 81.577 27.989 84.19 27.989 92.397 27.989 92.397 31.584 84.347 31.584 81.577 31.584 81.577 35.023 81.577 35.857 81.577 37.263 81.577 39.869 81.577 47.059 85.288 47.059 97.99 47.059 97.99 50.654 73.788 50.654 73.788 39.869 73.788 37.263 73.788 35.023 73.788 21.268 73.788 10.795 98.095 10.795 98.095 14.442 85.393 14.442"/>
            <path class="logo-1" d="M136.3071,45.183a15.174,15.174,0,0,1-5.3844,3.6477,20.7889,20.7889,0,0,1-5.6979,1.5626,65.2988,65.2988,0,0,1-7.3178.3135H106.5121V10.7954c9.7224.0519,11.4994.0519,11.4994.0519,5.5934,0,10.14.8335,13.4862,2.657a17.4354,17.4354,0,0,1,7.37,7.2953,22.1646,22.1646,0,0,1,2.4047,10.5242,22.31,22.31,0,0,1-1.3073,7.8162,17.033,17.033,0,0,1-3.6584,6.043m-7.7364-27.0412a10.3058,10.3058,0,0,0-4.5479-2.8659,23.4191,23.4191,0,0,0-6.7426-.7817c-.9938,0-2.0913,0-3.0843.0526V47.0591h4.6a19.15,19.15,0,0,0,7.5793-1.25,10.0534,10.0534,0,0,0,4.6522-4.69,20.034,20.034,0,0,0,1.9342-9.378,25.3286,25.3286,0,0,0-1.15-8.077,14.209,14.209,0,0,0-3.24-5.5222"/>
            <polygon class="logo-1" points="160.616 14.442 156.801 14.442 156.801 21.32 156.801 22.415 156.801 27.989 159.414 27.989 167.621 27.989 167.621 31.584 159.571 31.584 156.801 31.584 156.801 35.023 156.801 35.857 156.801 37.263 156.801 39.869 156.801 47.059 160.512 47.059 173.214 47.059 173.214 50.654 149.012 50.654 149.012 39.869 149.012 37.263 149.012 35.023 149.012 21.268 149.012 10.795 173.318 10.795 173.318 14.442 160.616 14.442"/>
            <polygon class="logo-1" points="210.33 50.707 185.709 18.402 185.709 40.39 185.709 50.707 182.103 50.707 182.103 40.39 182.103 20.956 182.103 10.847 189.578 10.847 209.179 36.952 209.179 18.559 209.179 10.847 213.1 10.847 213.1 18.975 213.1 50.707 210.33 50.707"/>
            <path class="logo-1" d="M82.0327,78.0352a17.1512,17.1512,0,0,1-3.9394.3414H73.7878V60.9107h3.8257c4.4649,0,7.214,1.2786,7.214,4.3613a3.6633,3.6633,0,0,1-1.3281,2.9449,4.8572,4.8572,0,0,1-1.3978.8,5.5318,5.5318,0,0,1,2.061,1.0959,4.2244,4.2244,0,0,1,1.5348,3.3334,4.6118,4.6118,0,0,1-1.0309,2.9914,4.6688,4.6688,0,0,1-2.6338,1.5981M80.0174,62.8518a5.2159,5.2159,0,0,0-2.29-.3429c-.16,0-.3661.0233-.5494.0233V68.4h.092a5.1686,5.1686,0,0,0,3.2065-.7074,2.8121,2.8121,0,0,0,.7779-2.2607,3.931,3.931,0,0,0-.3213-1.7352,2.0569,2.0569,0,0,0-.9155-.8444m-2.3358,7.1235h-.5038v6.6668h1.5571a3.3386,3.3386,0,0,0,2.5193-.6617,3.5011,3.5011,0,0,0,.8242-2.6028,3.2491,3.2491,0,0,0-.9156-2.58,5.4352,5.4352,0,0,0-3.4812-.8219"/>
            <path class="logo-1" d="M101.5935,72.2124a30.7781,30.7781,0,0,1,3.0687,6.1646h-3.0463c-.2747-1.1184-2.4727-7.8085-6.6645-7.8085l-.1826-.0224V78.377H91.402V60.9111h4.1a14.82,14.82,0,0,1,3.9163.3877,5.3369,5.3369,0,0,1,2.5874,1.4845,3.885,3.885,0,0,1,1.0308,2.6942,4.1221,4.1221,0,0,1-1.3281,3.105,6.2457,6.2457,0,0,1-2.359,1.37,10.0139,10.0139,0,0,1,2.2445,2.26m-6.3209-9.5893-.5038-.0225v6.3929H96.165a4.3312,4.3312,0,0,0,.7569-.1145c.2748-.0681.5263-.16.7546-.2283a2.5342,2.5342,0,0,0,.94-.6393,2.0132,2.0132,0,0,0,.5495-.8676,4.0017,4.0017,0,0,0,.2291-1.438,3.6733,3.6733,0,0,0-.733-2.3745c-.4117-.4567-1.4418-.7082-3.3891-.7082"/>
            <path class="logo-1" d="M117.0087,78.3765a7.9293,7.9293,0,0,1-6.0237-2.42,8.4342,8.4342,0,0,1-2.5881-6.4378,8.5086,8.5086,0,0,1,8.5886-8.6079,8.5083,8.5083,0,0,1,8.68,8.6993,8.3176,8.3176,0,0,1-2.565,6.3247,7.8826,7.8826,0,0,1-6.0917,2.4418m-.0232-15.8676a3.8014,3.8014,0,0,0-3.4589,1.736,8.5053,8.5053,0,0,0-1.4194,5.3651c0,2.4882.5038,4.2691,1.4194,5.4107a3.9668,3.9668,0,0,0,3.6415,1.736,4.2234,4.2234,0,0,0,3.5966-1.736c.8932-1.1184,1.1679-2.8536,1.1679-5.3875,0-2.4658-.2523-4.1786-1.1679-5.3427a4.2893,4.2893,0,0,0-3.7792-1.7816"/>
            <polygon class="logo-1" points="140.639 62.486 138.441 62.486 138.441 73.514 138.441 78.377 135.051 78.377 135.051 73.514 135.051 62.486 133.151 62.486 128.227 62.486 128.272 60.91 145.312 60.91 145.335 62.486 140.639 62.486"/>
            <polygon class="logo-1" points="160.742 78.377 160.742 69.997 152.955 69.997 152.955 78.377 149.566 78.377 149.566 60.911 152.955 60.911 152.955 68.423 160.742 68.423 160.742 60.911 164.131 60.911 164.131 78.377 160.742 78.377"/>
            <polygon class="logo-1" points="175.195 62.486 173.522 62.486 173.522 65.501 173.522 65.98 173.522 68.422 174.668 68.422 178.264 68.422 178.264 69.997 174.736 69.997 173.522 69.997 173.522 71.504 173.522 71.87 173.522 72.487 173.522 73.628 173.522 76.779 175.148 76.779 180.713 76.779 180.713 78.354 170.11 78.354 170.11 73.628 170.11 72.487 170.11 71.504 170.11 65.477 170.11 60.888 180.76 60.888 180.76 62.486 175.195 62.486"/>
            <path class="logo-1" d="M195.6942,72.2124a30.8145,30.8145,0,0,1,3.0679,6.1646h-3.0455c-.2755-1.1184-2.4735-7.8085-6.6645-7.8085l-.1834-.0224V78.377h-3.3659V60.9111h4.0988a14.8121,14.8121,0,0,1,3.9162.3877,5.3386,5.3386,0,0,1,2.5881,1.4845,3.8834,3.8834,0,0,1,1.03,2.6942,4.1213,4.1213,0,0,1-1.3273,3.105,6.2438,6.2438,0,0,1-2.36,1.37,10.0338,10.0338,0,0,1,2.2453,2.26m-6.3217-9.5893-.5038-.0225v6.3929h1.3969a4.3221,4.3221,0,0,0,.7562-.1145c.2748-.0681.527-.16.7554-.2283a2.5371,2.5371,0,0,0,.9388-.6393,2.02,2.02,0,0,0,.55-.8676,4.0172,4.0172,0,0,0,.2291-1.438,3.6779,3.6779,0,0,0-.7329-2.3745c-.4118-.4567-1.4426-.7082-3.39-.7082"/>
            <path class="logo-1" d="M207.0689,78.3542a7.2988,7.2988,0,0,1-4.9921-3.4023l1.1447-1.2321c1.5348,2.2151,2.359,2.8079,3.8249,3.037a2.802,2.802,0,0,0,2.2669-.5487,2.3931,2.3931,0,0,0,.962-1.6663,2.1836,2.1836,0,0,0-.4813-1.69,9.4162,9.4162,0,0,0-2.5866-1.8714,23.2578,23.2578,0,0,1-2.7723-1.7584,4.8685,4.8685,0,0,1-1.4651-1.94,4.5224,4.5224,0,0,1-.3669-2.3745,4.2523,4.2523,0,0,1,1.6726-3.037,4.7078,4.7078,0,0,1,3.4355-.8908,5.1625,5.1625,0,0,1,4.1453,2.6492l-1.3288,1.0951a6.4088,6.4088,0,0,0-.71-1.027,3.1058,3.1058,0,0,0-2.13-1.1415,2.1145,2.1145,0,0,0-1.7414.4117,1.8921,1.8921,0,0,0-.6632,1.2546,1.8479,1.8479,0,0,0,.5038,1.5309,10.4682,10.4682,0,0,0,2.61,1.917c1.3057.7763,2.2445,1.37,2.84,1.8034a4.5539,4.5539,0,0,1,1.4658,1.8729,5.11,5.11,0,0,1,.3669,2.58,4.8725,4.8725,0,0,1-1.9008,3.47,5.5225,5.5225,0,0,1-4.1.9589"/>
          </g>
          <path class="logo-1" d="M220.6391,62.4668a3.0322,3.0322,0,1,0,.4076,1.5214,2.98,2.98,0,0,0-.4076-1.5214m-.36,2.8278a2.6234,2.6234,0,0,1-4.5449,0,2.6234,2.6234,0,1,1,4.5449,0"/>
          <path class="logo-1" d="M218.9438,64.5787a1.6823,1.6823,0,0,0-.4957-.7047,1.0755,1.0755,0,0,0,.5987-.333.849.849,0,0,0,.2046-.57.7947.7947,0,0,0-.2942-.65,1.4766,1.4766,0,0,0-.9376-.24h-1.4647v.24a1.3911,1.3911,0,0,1,.39.0463c.0254.0194.0388.094.0388.2239v2.4592c0,.1224-.0119.1926-.0343.215a.5925.5925,0,0,1-.2524.0462l-.1254.0135v.2239h1.3423v-.2239l-.2374-.0209c-.0836-.0045-.1359-.0224-.1568-.0523a.49.49,0,0,1-.0343-.2389V63.9964h.2045a.6946.6946,0,0,1,.45.106,2.1962,2.1962,0,0,1,.3449.6659,2.0553,2.0553,0,0,0,.3478.6525.5063.5063,0,0,0,.36.1284h.4583v-.2329a.4829.4829,0,0,1-.37-.0926,4.22,4.22,0,0,1-.336-.645m-1.2706-.8406-.1881-.0089V62.55c0-.094.0179-.1552.0552-.1821a.6419.6419,0,0,1,.3076-.0418,1.1183,1.1183,0,0,1,.7077.1732.6161.6161,0,0,1,.209.5076.6429.6429,0,0,1-.2433.545,1.432,1.432,0,0,1-.8481.1866"/>
        </g>
        <g>
          <path class="logo-2" d="M13.6316,39.2244a27.19,27.19,0,1,0,32.0275.5709"/>
          <path class="logo-3" d="M21.1626,71.3475a8.372,8.372,0,0,1-8.729-8.4284c0-15.9477,17.18-11.9,18.7984-25.846,0,0,1.8859-9.3423-1.712-11.1072"/>
          <path class="logo-4" d="M45.9749,63.8169v-.143c0-9.42-6.3752-12.9018-13.9518-11.9594-5.6142.6952-18.77,3.8618-18.77,12.1024v.1472c0,8.2427,13.1562,11.4115,18.77,12.1065,7.5766.9383,13.9518-2.5432,13.9518-11.9572Z"/>
          <path class="logo-5" d="M45.9749,63.8169v-.143c0-9.42-6.3752-12.9018-13.9518-11.9594-5.6142.6952-18.77,3.8618-18.77,12.1024v.1472c0,8.2427,13.1562,11.4115,18.77,12.1065,7.5766.9383,13.9518-2.5432,13.9518-11.9572Z"/>
          <path class="logo-1" d="M16.9124,62.4858a4.4366,4.4366,0,0,0,1.2053,3.0691,8.5025,8.5025,0,0,0,2.669,2.0414,11.9638,11.9638,0,0,0,3.18,1.043c1.1079.1821,2.2086.1967,3.3536.3389l.0079.0009a.1936.1936,0,0,1,.0232.38,7.9055,7.9055,0,0,1-3.52-.0294A10.73,10.73,0,0,1,20.55,68.024a9.5113,9.5113,0,0,1-2.6279-2.312,4.8255,4.8255,0,0,1-1.1584-3.241.0749.0749,0,0,1,.1494.01v0Z"/>
          <path class="logo-6" d="M31.3475,35.8657A25.115,25.115,0,0,1,37.49,21.7038"/>
          <path class="logo-7" d="M37.6582,21.8889c4.1876,4.6049,10.974,2.7735,14.846.0075C59.7216,16.732,63.8063,8.7159,66.2808.5115c-9.4065.5812-18.9252,2.6178-25.9586,7.9826-3.7745,2.8763-7.0966,8.514-2.9111,13.1235"/>
          <path class="logo-6" d="M37.6582,21.8889c4.1876,4.6049,10.974,2.7735,14.846.0075C59.7216,16.732,63.8063,8.7159,66.2808.5115c-9.4065.5812-18.9252,2.6178-25.9586,7.9826-3.7745,2.8763-7.0966,8.514-2.9111,13.1235,0,0,3.4052-4.762,12.5068-6.9786"/>
          <path class="logo-7" d="M29.3863,25.4619c3.9635-4.6358.5458-10.0588-3.2342-12.7648C19.1084,7.65,9.7286,5.9341.5011,5.64,3.164,13.601,7.4,21.3307,14.6159,26.1763c3.8723,2.5951,10.5685,4.19,14.5342-.4417"/>
          <path class="logo-8" d="M17.8453,20.0158a25.1421,25.1421,0,0,1,11.541,5.4461c3.9635-4.6358.5458-10.0588-3.2342-12.7648C19.1084,7.65,9.7286,5.9341.5011,5.64,3.164,13.601,7.4,21.3307,14.6159,26.1763c3.8723,2.5951,10.5685,4.19,14.5342-.4417"/>
        </g>
      </g>
    </g>
  </g>
</svg>
