<?xml version="1.0" encoding="UTF-8"?><svg id="LogoGroup" xmlns="http://www.w3.org/2000/svg" viewBox="0 0 190.57 42.17"><defs><style>.cls-1{fill:#fff;}.cls-2{fill:#ed1c24;}</style></defs><g id="LogoText"><path id="J" d="M37.16,20.39c4.62,0,4.93-.95,5.2-6.01l-.14-7.8c.08-1.81,.12-3.62,.12-5.96h8.08c-.23,2.79-.43,5.09-.5,7.35l-.43,10.11c-.23,5.93-3.11,8.53-10.3,8.53-2.14,0-4.35-.23-6.6-.72v-6.37c1.67,.53,3.25,.86,4.57,.86Z"/><path id="O" d="M63.42,6.41c7.36,0,11.47,3.48,11.47,9.6,0,6.54-4.65,10.46-12.22,10.46s-11.55-3.48-11.55-9.64,4.61-10.43,12.3-10.43Zm-4.11,10.31c0,3.1,1.12,4.6,3.57,4.6s3.82-1.68,3.82-4.93-.96-4.9-3.57-4.9-3.82,1.76-3.82,5.23Z"/><path id="H" d="M77.05,.71h7.46c-.27,2.42-.34,5.35-.46,8.25,1.49-1.85,3.26-2.79,6.35-2.79,5.25,0,7.48,2.07,7.48,6.41,0,2.64-.24,7.17-.4,13.55h-7.71c.39-4.79,.51-7.96,.51-9.4,0-3.28-.51-4.76-2.74-4.76-3.95,0-3.82,4.15-3.71,14.15h-8.21c.59-5.17,1.12-13.91,1.43-25.42Z"/><path id="N" d="M100.41,6.94h7.33v2.38c1.65-1.96,3.57-2.94,6.75-2.94,5.26,0,7.49,1.89,7.49,6.23,0,2.64,.19,7.11,.04,13.49l-8.16,.06c.39-4.79,.51-7.96,.51-9.4,0-3.28-.51-4.76-2.75-4.76-3.96,0-4.08,4.53-4.16,14.15h-7.73c.67-6.08,.67-12.46,.67-19.21Z"/><path id="N-2" d="M124.79,6.94h7.33v2.38c1.65-1.96,3.57-2.94,6.75-2.94,5.26,0,7.49,1.89,7.49,6.23,0,2.64-.18,7.05-.34,13.67h-7.78c.39-5.04,.51-8.09,.51-9.52,0-3.28-.51-4.76-2.75-4.76-3.96,0-4.39,4.53-4.47,14.15h-7.73c.67-6.08,.98-12.46,.98-19.21Z"/><path id="Y" d="M148.97,13.34c-.72-2-1.6-4.22-2.64-6.7h8.39c.36,1.41,.8,3,1.36,4.81l2.2,7.25s3.39-8.19,4.53-12.06h7.89l-8.95,19.46c-3.18,7.52-4.93,8.95-11.33,8.95-1.48,0-2.84-.31-4.24-.64l-.42-5.6c1.2,.22,2.35,.64,3.14,.64,2.48,0,4.94-1.41,4.51-3.91l-4.45-12.2Z"/><path id="Apostrophe" d="M179.28,.69l-4.44,7.76h-3.21l2.75-7.76h4.9Z"/><path id="S" d="M180.26,21.35c1.32,0,2-.41,2-1.13,0-.64-.94-1.21-2.57-2.3-2.91-1.92-4.68-3.21-4.68-6,0-3.51,2.68-5.43,7.89-5.43,2.3,0,4.34,.23,6.15,.72l.45,5.21c-1.58-.45-3.13-.75-4.76-.75-1.13,0-1.74,.45-1.74,1.06,0,.83,.91,1.25,2.3,2.15,2.83,1.81,4.45,3.32,4.45,5.96,0,3.89-2.79,5.89-8.19,5.89-2.15,0-4.42-.26-6.64-.87l-.49-5.66c2.45,.72,4.34,1.17,5.81,1.17Z"/><g id="Selected"><path id="Tail" d="M139.89,41.13s7.25-2.09,15.37-1.59,16.27,1.13,21.03,1.06c13.56-.19,12.69-4.5,12.69-4.5,0,0,1.84,.99,1.56,2.75-.23,1.49-1.25,4.05-14.25,3.11s-20.25-1.72-21.06-1.77c-8-.44-15.44,1.15-15.44,1.15l.09-.22Z"/><path id="_nd_S" d="M115.54,30.48c.37,2.85-3.37,2.25-3.37,2.25,0,0,.64-.82,.87-1.75,.31-1.21-.19-2.26-1.25-2.34-1.25-.09-1.68,1.91-1.78,3.28-.28,3.97,.97,10.69-6.5,9.97-3.36-.32-4.16-2.12-4.41-3.41-.24-1.24,.38-2.65,1.97-2.53,1.27,.1,1.52,1.26,1.56,1.75-.06,1.62-1.56,1.75-1.56,1.75,0,0,.19,1.94,2.44,2.06,1.31,.07,3.92-.25,3.75-3.75-.49-10.11,4.32-9.53,4.53-9.53,.29,0,3.49,.23,3.75,2.25Z"/><path id="_st_S" d="M50.7,30.48c.37,2.85-3.37,2.25-3.37,2.25,0,0,.64-.82,.87-1.75,.31-1.21-.19-2.26-1.25-2.34-1.25-.09-1.68,1.91-1.78,3.28-.28,3.97,.97,10.69-6.5,9.97-3.36-.32-4.16-2.12-4.41-3.41-.24-1.24,.38-2.65,1.97-2.53,1.27,.1,1.52,1.26,1.56,1.75-.06,1.62-1.56,1.75-1.56,1.75,0,0,.19,1.94,2.44,2.06,1.31,.07,3.92-.25,3.75-3.75-.49-10.11,4.32-9.53,4.53-9.53,.29,0,3.49,.23,3.75,2.25Z"/><path id="eeds" d="M130.73,41.79c-2,.07-1.59-1.62-1.59-1.62-.44,.75-1.42,1.88-2.81,1.72-1.32-.16-1.98-1.42-1.65-2.84,0,0-2.35,3.58-5.26,2.88-1.38-.33-1.92-1.3-1.95-2.51,0,0-2.65,3-5.49,2.51-3.04-.53-2.1-4.3-1.25-5.5,1.95-2.73,6.26-2.76,6.53-1.34,.72,3.78-5.03,3.53-5.03,3.53,0,0-.53,2.37,1.41,2.41,1.94,.03,3.81-2.16,3.81-2.16,0,0,.35-1.7,.78-2.41,1.75-2.87,6.2-2.79,6.47-1.37,.72,3.78-5.03,3.53-5.03,3.53,0,0-.65,2.06,1.44,2.37,1.64,.25,3.58-2.53,3.58-2.53,.43-1.04,.63-1.57,.96-2.06,1.48-2.25,3.79-2.8,5.31-2.05,.35,.17,.54,.9,.54,.9l3.81-6.61h2.53l-5.84,10.05s-1.15,1.78-.56,2.09c.52,.28,1.81-.91,1.81-.91-.08-.68,.43-1.87,1.51-1.72,.71,.1,1.18,.34,1.2,1.24-.1,1.14-1.16,1.15-1.16,1.15,0,0,.12,1,1.39,1.07,.74,.04,1.74-.58,1.43-1.6-.51-1.71-1.89-2.13-1.39-4.12,.46-1.83,2.92-1.65,2.98-1.64,.37,.05,2.25,.24,2.41,1.53,.23,1.93-2.16,1.25-2.16,1.25,0,0,1.45-2.21-.23-2.45-1.62-.23-1.37,1.38-.63,2.34,.32,.41,1.62,1.46,1.31,2.99-.43,2.04-2.78,2.15-3.83,2.05-1.28-.13-2.29-.76-2.7-1.78,0,0-1.46,1.59-2.63,1.63Zm-9.78-5.91c-1.33,1.55-1.28,2.34-1.28,2.34,0,0,1.74-.16,2.62-1.25,1.5-1.84,1.18-2.37,1.06-2.47-.22-.19-1.09-.16-2.41,1.37Zm-7.41,0c-1.33,1.55-1.28,2.34-1.28,2.34,0,0,1.74-.16,2.62-1.25,1.5-1.84,1.18-2.37,1.06-2.47-.22-.19-1.09-.16-2.41,1.37Zm14.01,1.19c-1.23,2.51-.89,3.46-.25,3.71,.65,.26,1.27-.6,1.27-.6,0,0,2.45-4.01,2.54-4.52,.05-.29,0-.5-.3-.79s-2.03-.32-3.26,2.2Z"/><path d="M59.69,38.23s.23-1.2,1.22-2.28c.71-.77,2.04-1.76,2.47-1.44,.42,.32-.36,1.84-1.34,2.72s-2.34,1-2.34,1Zm-12.16,0s.23-1.2,1.22-2.28c.71-.77,2.04-1.76,2.47-1.44,.42,.32-.36,1.84-1.34,2.72s-2.34,1-2.34,1Zm32.84,0s.23-1.2,1.22-2.28c.71-.77,2.04-1.76,2.47-1.44,.42,.32-.36,1.84-1.34,2.72s-2.34,1-2.34,1Zm-10.25-3.6c1.25,.28-.31,3.03-.31,3.03,0,0,2.61,0,2.39-1.93-.13-1.17-1.17-1.47-2.26-1.51-1.47-.06-3.14,.26-4.28,2.13-.27,.45-.72,1.44-.83,2.28,0,0-1.66,2.28-3.7,2.28s-1.47-2.25-1.47-2.25c0,0,5.75,.19,5.03-3.59-.27-1.41-4.46-1.61-6.44,1.31-.34,.5-.78,1.44-.81,2.56,0,0-2.16,2.17-2.78,1.59-.34-.32-.1-.88-.1-.88l6.59-10.88h-2.81l-5.81,9.88s-1.87,2.24-3.56,2.31c-2.09,.08-1.44-2.31-1.44-2.31,0,0,5.75,.19,5.03-3.59-.27-1.41-4.68-1.36-6.53,1.34-.83,1.21-1.91,5.19,1.25,5.5,2.99,.3,5.03-2.47,5.03-2.47,0,0-.75,2.51,1.37,2.41,1.66-.08,3.79-2.44,3.79-2.44-.02,1.05,.59,2.33,1.93,2.5,3.41,.44,5.4-2.69,5.4-2.69,.02,.94,.42,2.33,1.6,2.61,3.15,.73,5.68-2.27,5.68-2.27,0,0-.58,1.99,1.09,2.24,2.35,.35,5.06-2.51,5.06-2.51-.04,1.23,.73,2.44,1.91,2.62,2.9,.44,5.23-2.53,5.23-2.53-.18,1.05,.41,2.35,1.68,2.5,1.11,.13,2.03-.47,2.91-1.78,0,0-.46,1.55,1.41,1.69,2.23,.17,5.5-5.12,5.5-5.12h-.22s-3.38,4.91-4.5,4c-.4-.33,.72-2,.72-2l5.84-10.06h-2.69l-3.81,6.62s-.02-.63-.53-.9c-1.5-.79-3.78-.17-5.31,2.05-.51,.74-.99,2.47-.99,2.47,0,0-1.72,2.06-3.61,2.15-1.93,.1-1.37-2.34-1.37-2.34,0,0,5.75,.19,5.03-3.59-.27-1.41-4.68-1.53-6.41,1.34-.46,.76-.8,2.25-.8,2.25,0,0-1.44,1.75-3.64,2.22-.92,.2-.44-.97-.44-.97l2.62-4.47,2.26,.02v-.83h-1.74l1.58-2.65h-2.43l-1.64,2.65h-1.75l.03,.81h1.27s-1.53,2.75-1.72,3.01c-.37,.51-1.85,2.42-4.31,2.66-1.14,.11-1.28-1.39-1.19-2.69,.03-.37,.91-4.24,3-3.78Zm21.5,.29c.31,.29,.35,.5,.3,.79-.1,.51-2.54,4.52-2.54,4.52,0,0-.62,.86-1.27,.6-.64-.25-.98-1.2,.25-3.71,1.23-2.51,2.95-2.48,3.26-2.19Z"/></g></g><path id="NEWRedOval" class="cls-2" d="M0,20.33c0,11.23,6.51,20.33,14.54,20.33s14.54-9.1,14.54-20.33S22.57,0,14.54,0,0,9.1,0,20.33Z"/><circle id="NEWWhiteCircleTop" class="cls-1" cx="14.5" cy="2.58" r="1.92"/><path id="NEWwhiteJ" class="cls-1" d="M6.06,36.4c1.01,.42,1.58,.66,2.5,.66,2.28,0,5.81-1.08,7.02-5.13,1.67-5.62-1.22-11.89-1.7-14-1.33-5.95-.66-7.9-.36-9.08,.18-.72,.2-.43,.2,.16,0,2.02,.43,4.6,1.23,6.16,.11,.22,5.56,11.91,4.38,17.36-.86,3.99-4.03,5.79-7.25,5.79-4.7,0-5.85-1.94-6.01-1.92"/></svg>